<svg width="428" height="364" viewBox="0 0 428 364" fill="none" xmlns="http://www.w3.org/2000/svg">
<rect width="428" height="364" fill="#ECECEC"/>
<g clip-path="url(#clip0_1054_3593)">
<rect width="428" height="926" fill="white"/>
<ellipse opacity="0.06" cx="237.305" cy="102.332" rx="261.085" ry="406.427" transform="rotate(-91.3133 237.305 102.332)" fill="#1D1D1D"/>
<g clip-path="url(#clip1_1054_3593)">
<path opacity="0.35" d="M389.5 20C389.5 18.8034 390.47 17.8334 391.667 17.8334H408.333C409.53 17.8334 410.5 18.8034 410.5 20V26C410.5 27.1967 409.53 28.1667 408.333 28.1667H391.667C390.47 28.1667 389.5 27.1967 389.5 26V20Z" stroke="black"/>
<path opacity="0.4" d="M412 21V25C412.805 24.6613 413.328 23.8732 413.328 23C413.328 22.1269 412.805 21.3388 412 21Z" fill="black"/>
<path d="M391 20.6667C391 19.9303 391.597 19.3334 392.333 19.3334H407.667C408.403 19.3334 409 19.9303 409 20.6667V25.3334C409 26.0698 408.403 26.6667 407.667 26.6667H392.333C391.597 26.6667 391 26.0698 391 25.3334V20.6667Z" fill="black"/>
<path fill-rule="evenodd" clip-rule="evenodd" d="M376.33 19.608C378.546 19.6081 380.677 20.4596 382.283 21.9863C382.404 22.1042 382.597 22.1027 382.716 21.983L383.872 20.8163C383.933 20.7556 383.966 20.6734 383.966 20.5878C383.965 20.5022 383.931 20.4204 383.87 20.3603C379.655 16.3208 373.005 16.3208 368.79 20.3603C368.729 20.4203 368.694 20.5021 368.693 20.5877C368.693 20.6733 368.726 20.7556 368.787 20.8163L369.943 21.983C370.062 22.1029 370.255 22.1044 370.376 21.9863C371.982 20.4595 374.114 19.608 376.33 19.608ZM376.33 23.4037C377.547 23.4036 378.721 23.8561 379.624 24.6733C379.746 24.7893 379.938 24.7868 380.057 24.6677L381.212 23.501C381.273 23.4398 381.307 23.3568 381.306 23.2705C381.305 23.1843 381.269 23.102 381.207 23.042C378.459 20.4856 374.203 20.4856 371.455 23.042C371.393 23.102 371.357 23.1843 371.357 23.2706C371.356 23.3569 371.39 23.4399 371.451 23.501L372.605 24.6677C372.724 24.7868 372.916 24.7893 373.038 24.6733C373.94 23.8567 375.113 23.4042 376.33 23.4037ZM378.643 25.9575C378.645 26.044 378.611 26.1274 378.549 26.188L376.552 28.2037C376.493 28.2629 376.413 28.2963 376.33 28.2963C376.247 28.2963 376.167 28.2629 376.108 28.2037L374.111 26.188C374.049 26.1274 374.015 26.0439 374.017 25.9574C374.019 25.8709 374.056 25.789 374.12 25.731C375.396 24.6521 377.264 24.6521 378.54 25.731C378.604 25.789 378.641 25.871 378.643 25.9575Z" fill="black"/>
<path fill-rule="evenodd" clip-rule="evenodd" d="M362.667 17.6666H361.667C361.114 17.6666 360.667 18.1143 360.667 18.6666V27.3333C360.667 27.8856 361.114 28.3333 361.667 28.3333H362.667C363.219 28.3333 363.667 27.8856 363.667 27.3333V18.6666C363.667 18.1143 363.219 17.6666 362.667 17.6666ZM357 20H358C358.552 20 359 20.4477 359 21V27.3333C359 27.8856 358.552 28.3333 358 28.3333H357C356.448 28.3333 356 27.8856 356 27.3333V21C356 20.4477 356.448 20 357 20ZM353.333 22.3333H352.333C351.781 22.3333 351.333 22.781 351.333 23.3333V27.3333C351.333 27.8856 351.781 28.3333 352.333 28.3333H353.333C353.885 28.3333 354.333 27.8856 354.333 27.3333V23.3333C354.333 22.781 353.885 22.3333 353.333 22.3333ZM348.667 24.3333H347.667C347.114 24.3333 346.667 24.781 346.667 25.3333V27.3333C346.667 27.8856 347.114 28.3333 347.667 28.3333H348.667C349.219 28.3333 349.667 27.8856 349.667 27.3333V25.3333C349.667 24.781 349.219 24.3333 348.667 24.3333Z" fill="black"/>
<path d="M37.3208 28.2563C40.0088 28.2563 41.6055 26.1543 41.6055 22.5947C41.6055 21.2544 41.3491 20.1265 40.8584 19.2549C40.1479 17.8999 38.9248 17.1675 37.3794 17.1675C35.0796 17.1675 33.4536 18.7129 33.4536 20.8809C33.4536 22.917 34.9185 24.3965 36.9326 24.3965C38.1704 24.3965 39.1738 23.8179 39.6719 22.8145H39.6938C39.6938 22.8145 39.7231 22.8145 39.7305 22.8145C39.7451 22.8145 39.7964 22.8145 39.7964 22.8145C39.7964 25.2314 38.8809 26.6743 37.3354 26.6743C36.4272 26.6743 35.7241 26.1763 35.4824 25.3779H33.6001C33.915 27.1138 35.3872 28.2563 37.3208 28.2563ZM37.3867 22.895C36.1709 22.895 35.3066 22.0308 35.3066 20.8223C35.3066 19.6431 36.2148 18.7422 37.394 18.7422C38.5732 18.7422 39.4814 19.6577 39.4814 20.8516C39.4814 22.0308 38.5952 22.895 37.3867 22.895Z" fill="black"/>
<path d="M44.6966 28.1538C45.3924 28.1538 45.8685 27.6558 45.8685 26.9966C45.8685 26.3301 45.3924 25.8394 44.6966 25.8394C44.0081 25.8394 43.5247 26.3301 43.5247 26.9966C43.5247 27.6558 44.0081 28.1538 44.6966 28.1538ZM44.6966 22.6606C45.3924 22.6606 45.8685 22.1699 45.8685 21.5107C45.8685 20.8442 45.3924 20.3535 44.6966 20.3535C44.0081 20.3535 43.5247 20.8442 43.5247 21.5107C43.5247 22.1699 44.0081 22.6606 44.6966 22.6606Z" fill="black"/>
<path d="M52.7242 28H54.5333V26.0298H55.9615V24.4331H54.5333V17.4312H51.8673C49.9996 20.2437 48.5128 22.5947 47.5606 24.3452V26.0298H52.7242V28ZM49.3111 24.3672C50.5416 22.1992 51.6402 20.4634 52.651 18.9692H52.7535V24.4771H49.3111V24.3672Z" fill="black"/>
<path d="M59.9901 28H61.8798V17.4312H59.9975L57.2362 19.3647V21.1812L59.8656 19.3354H59.9901V28Z" fill="black"/>
</g>
<path d="M351.921 267.557C350.175 265.891 347.412 268.653 347.453 268.742C347.257 269.127 347.067 269.524 346.888 269.927C347.273 269.518 348.541 269.287 350.206 269.714C351.87 270.14 353.631 269.074 351.921 267.557Z" fill="#263238"/>
<path d="M346.693 263.017C344.926 261.452 344.068 264.848 345.219 266.431C346.369 268.013 346.883 269.323 346.862 269.921C347.016 269.506 347.181 269.092 347.376 268.689C347.268 268.677 348.311 264.57 346.693 263.017Z" fill="#263238"/>
<path d="M349.667 259.176C348.157 257.298 346.831 260.451 347.735 262.229C348.639 264.006 348.968 265.381 348.86 265.962C349.071 265.589 349.292 265.221 349.518 264.86C349.43 264.836 351.038 261.025 349.667 259.176Z" fill="#263238"/>
<path d="M345.85 273.098C345.808 273.12 345.759 273.123 345.715 273.106C345.67 273.09 345.633 273.055 345.609 273.009C343.671 268.95 342.665 264.387 342.688 259.753C342.71 255.119 343.76 250.569 345.737 246.535C345.762 246.487 345.802 246.451 345.849 246.437C345.897 246.422 345.947 246.43 345.989 246.458C346.011 246.471 346.03 246.489 346.046 246.511C346.061 246.533 346.073 246.558 346.079 246.585C346.086 246.613 346.088 246.641 346.085 246.669C346.082 246.697 346.073 246.724 346.061 246.749C344.11 250.72 343.074 255.202 343.052 259.767C343.029 264.333 344.021 268.828 345.933 272.825C345.945 272.849 345.953 272.876 345.956 272.904C345.959 272.932 345.958 272.961 345.951 272.988C345.944 273.015 345.933 273.041 345.917 273.062C345.902 273.084 345.882 273.102 345.861 273.115L345.85 273.098Z" fill="#263238"/>
<path d="M346.441 263.965C344.196 264.303 344.068 268.523 344.16 268.552C344.273 268.985 344.397 269.412 344.53 269.838C344.53 269.246 345.249 268.007 346.651 266.875C348.053 265.743 348.572 263.544 346.441 263.965Z" fill="#263238"/>
<path d="M339.98 265.292C337.787 265.719 339.359 268.759 341.146 268.848C342.933 268.937 344.115 269.411 344.479 269.838C344.32 269.423 344.171 269.002 344.032 268.582C343.986 268.659 342.091 264.978 339.98 265.292Z" fill="#263238"/>
<path d="M346.144 260.101C343.879 260.007 343.134 264.096 343.216 264.143C343.267 264.582 343.324 265.02 343.391 265.459C343.483 264.866 344.372 263.817 345.923 262.999C347.474 262.182 348.29 260.107 346.144 260.101Z" fill="#263238"/>
<path d="M339.59 260.166C337.366 260.166 338.465 263.432 340.211 263.87C341.957 264.309 343.051 264.985 343.349 265.465C343.252 265.032 343.169 264.599 343.098 264.161C343.021 264.214 341.695 260.261 339.59 260.166Z" fill="#263238"/>
<path d="M346.385 256.255C344.166 255.727 342.841 259.597 342.918 259.657C342.918 260.095 342.892 260.534 342.892 260.972C343.072 260.421 344.099 259.556 345.748 259.052C347.396 258.548 348.511 256.676 346.385 256.255Z" fill="#263238"/>
<path d="M339.923 255.052C337.735 254.625 338.346 258.051 340 258.815C341.654 259.58 342.64 260.445 342.861 260.978C342.83 260.534 342.814 260.095 342.804 259.651C342.722 259.698 341.988 255.562 339.923 255.052Z" fill="#263238"/>
<path d="M347.171 252.497C345.06 251.555 343.19 255.123 343.257 255.194C343.18 255.62 343.108 256.053 343.046 256.486C343.298 255.976 344.438 255.3 346.128 255.146C347.818 254.992 349.225 253.327 347.171 252.497Z" fill="#263238"/>
<path d="M341.007 250.067C338.912 249.22 339.014 252.728 340.54 253.801C342.065 254.874 342.902 255.917 343.046 256.48C343.082 256.041 343.123 255.603 343.18 255.17C343.062 255.188 342.959 250.968 341.007 250.067Z" fill="#263238"/>
<path d="M348.547 248.929C346.6 247.59 344.227 250.773 344.284 250.85C344.145 251.259 344.011 251.673 343.888 252.094C344.212 251.638 345.429 251.211 347.129 251.359C348.829 251.507 350.432 250.144 348.547 248.929Z" fill="#263238"/>
<path d="M342.8 245.326C340.853 244.081 340.432 247.59 341.773 248.941C343.113 250.292 343.796 251.496 343.827 252.082C343.93 251.656 344.038 251.229 344.156 250.808C344.089 250.82 344.603 246.6 342.8 245.326Z" fill="#263238"/>
<path d="M345.075 248.443C345.019 248.443 345.533 244.692 346.539 242.95C347.546 241.207 348.84 241.61 349.174 242.422C349.508 243.234 348.82 244.413 348.065 245.243C347.31 246.073 345.05 248.39 345.075 248.443Z" fill="#263238"/>
<path d="M345.116 248.574C345.091 248.582 345.064 248.582 345.039 248.572C345.015 248.563 344.993 248.545 344.977 248.52C344.968 248.504 344.963 248.484 344.963 248.464C344.963 248.444 344.968 248.425 344.977 248.408C344.977 247.703 345.594 244.372 346.456 242.873C346.626 242.496 346.879 242.178 347.191 241.953C347.502 241.728 347.861 241.603 348.228 241.592C348.451 241.599 348.667 241.674 348.856 241.809C349.045 241.945 349.199 242.136 349.302 242.363C349.774 243.459 348.557 244.929 348.172 245.326C347.391 246.055 345.373 248.236 345.208 248.479C345.202 248.503 345.19 248.525 345.174 248.541C345.157 248.558 345.137 248.569 345.116 248.574ZM347.545 242.019C347.159 242.241 346.841 242.592 346.631 243.027C345.84 244.396 345.362 247.021 345.229 248.029C345.409 247.815 345.707 247.495 346.164 247.003C346.76 246.363 347.545 245.539 347.977 245.136C348.696 244.336 349.363 243.216 349.05 242.481C348.962 242.305 348.836 242.157 348.684 242.054C348.532 241.95 348.359 241.893 348.182 241.889C347.967 241.872 347.752 241.917 347.556 242.019H347.545Z" fill="#263238"/>
<path d="M76.6354 266.751C78.4279 267.101 77.149 269.584 75.6853 269.673C74.2215 269.761 73.2559 270.129 72.958 270.479C73.0864 270.141 73.2097 269.797 73.3227 269.453C73.3792 269.507 74.9303 266.496 76.6354 266.751Z" fill="#263238"/>
<path d="M76.9737 262.56C78.7868 262.56 77.888 265.233 76.4601 265.589C75.0323 265.944 74.1335 266.495 73.8921 266.892C73.964 266.537 74.0359 266.181 74.0924 265.826C74.1643 265.855 75.248 262.643 76.9737 262.56Z" fill="#263238"/>
<path d="M76.6817 258.382C78.4742 258.033 77.9709 260.83 76.6201 261.458C75.2693 262.086 74.463 262.792 74.2832 263.236C74.3037 262.873 74.3192 262.511 74.3294 262.152C74.4116 262.175 75.0125 258.797 76.6817 258.382Z" fill="#263238"/>
<path d="M75.8191 254.305C77.5345 253.618 77.4523 256.48 76.2043 257.357C74.9562 258.234 74.2731 259.088 74.1498 259.55C74.1498 259.189 74.0882 258.833 74.042 258.477C74.1139 258.501 74.2218 255.046 75.8191 254.305Z" fill="#263238"/>
<path d="M74.3501 250.447C75.9423 249.433 76.2864 252.296 75.1822 253.41C74.0779 254.524 73.5335 255.502 73.4873 255.976C73.4051 255.627 73.3178 255.277 73.2202 254.933C73.2921 254.921 72.8812 251.472 74.3501 250.447Z" fill="#263238"/>
<path d="M367.693 273.572L59 273.572" stroke="#263238" stroke-width="0.5" stroke-linecap="round" stroke-linejoin="round"/>
<path d="M302.063 60H122.758C111.44 60 102.265 70.5869 102.265 83.6466V183.584C102.265 196.644 111.44 207.231 122.758 207.231H302.063C313.381 207.231 322.556 196.644 322.556 183.584V83.6466C322.556 70.5869 313.381 60 302.063 60Z" fill="white"/>
<path d="M302.125 63.4728H122.491C117.715 63.4743 113.135 65.6648 109.758 69.5624C106.381 73.46 104.484 78.7456 104.484 84.2569V120.408V148.097V182.849C104.485 188.36 106.383 193.644 109.76 197.54C113.136 201.436 117.716 203.626 122.491 203.628H302.125C304.491 203.628 306.834 203.09 309.02 202.045C311.206 201 313.192 199.469 314.865 197.538C316.538 195.608 317.865 193.316 318.771 190.794C319.676 188.271 320.142 185.568 320.142 182.838V84.2569C320.141 78.744 318.242 73.4575 314.863 69.5599C311.485 65.6623 306.903 63.4728 302.125 63.4728Z" fill="#D9D9D9"/>
<path d="M236.049 117.694H179.208V87.5757C179.208 87.315 179.143 87.06 179.021 86.8406C178.899 86.6212 178.725 86.4465 178.52 86.337L135.192 63.4728H129.543L176.871 88.4528V117.694H104.479V120.42H133.564C131.237 147.611 142.347 163.535 152.198 172.14C158.474 177.55 165.565 181.569 173.112 183.993L162.326 203.628H165.12L184.483 168.442H219.018L213.456 203.628H215.854L229.008 120.402H235.479L293.096 203.628H296.116L270.06 165.989L303.696 137.299C303.845 137.172 303.966 137.007 304.049 136.817C304.132 136.626 304.175 136.416 304.174 136.202C304.175 136.088 304.163 135.975 304.138 135.864L294.102 90.6456H320.142V87.9194H271.257C271.037 87.9147 270.819 87.981 270.63 88.1108C270.44 88.2406 270.286 88.4288 270.184 88.6543L265.731 98.8122L249.341 81.4774L255.34 63.4728H252.813L246.85 81.3647C246.764 81.6199 246.747 81.8991 246.802 82.1656C246.856 82.4321 246.978 82.6736 247.153 82.8582L264.647 101.361L249.393 136.143L236.974 118.198C236.861 118.04 236.72 117.913 236.56 117.826C236.401 117.739 236.226 117.694 236.049 117.694ZM272.002 90.6634H291.683L301.673 135.669L268.607 163.873L251.036 138.49L272.002 90.6634ZM226.63 120.42L219.439 165.758H185.952L210.903 120.42H226.63ZM208.14 120.42L174.488 181.581C166.972 179.265 159.905 175.326 153.662 169.971C140.02 158.071 134.078 141.4 135.947 120.414L208.14 120.42Z" fill="white"/>
<path d="M211.751 63.4728V67.5502L234.067 77.8504V98.4507L212.244 87.5757V103.595H190.924V79.5631L163.841 63.4728H211.751Z" fill="#C4C4C4"/>
<path d="M125.336 159.813V174.529H135.963V159.813H125.336Z" fill="#C4C4C4"/>
<path d="M172.337 175.424L200.641 124.853H141.294C141.294 124.853 138.248 161.022 172.337 175.424Z" fill="#C4C4C4"/>
<path d="M125.332 145.916V155.452H132.219V145.916H125.332Z" fill="#C4C4C4"/>
<path d="M264.061 128.208L275.273 146.597L291.806 136.38L290.034 99.6006L274.682 97.556L269.372 111.862L277.636 117.99L274.682 124.118L265.828 118.672L264.061 128.208Z" fill="#C4C4C4"/>
<path d="M230.755 187.632H262.64L269.917 204.131H230.082L230.755 187.632Z" fill="#C4C4C4"/>
<path d="M250.544 160.169H231.869L230.939 183.057H260.626L250.544 160.169Z" fill="#C4C4C4"/>
<path d="M135.5 64.7825L136.199 65.1559" stroke="#076BE0" stroke-linejoin="round"/>
<path d="M137.612 65.9089L176.503 86.6634" stroke="#076BE0" stroke-linejoin="round" stroke-dasharray="3.03 3.03"/>
<path d="M177.21 87.0366L177.909 87.41V88.2989" stroke="#076BE0" stroke-linejoin="round"/>
<path d="M177.91 90.0471V117.149" stroke="#076BE0" stroke-linejoin="round" stroke-dasharray="2.95 2.95"/>
<path d="M177.909 118.02V118.909H177.138" stroke="#076BE0" stroke-linejoin="round"/>
<path d="M175.599 118.909H136.333" stroke="#076BE0" stroke-linejoin="round" stroke-dasharray="3 3"/>
<path d="M135.562 118.909H134.791C134.791 118.909 134.73 119.211 134.647 119.78" stroke="#263238" stroke-width="0.5" stroke-linejoin="round"/>
<path d="M134.417 121.517C133.615 128.7 132.876 149.318 147.339 165.705C157.39 177.078 169.578 181.416 173.764 182.637" stroke="#076BE0" stroke-linejoin="round" stroke-dasharray="2.97 2.97"/>
<path d="M174.503 182.844C175.017 182.974 175.253 183.033 175.253 183.033L175.679 182.293" stroke="#076BE0" stroke-linejoin="round"/>
<path d="M176.506 180.752L209.757 120.325" stroke="#076BE0" stroke-linejoin="round" stroke-dasharray="3.06 3.06"/>
<path d="M210.179 119.561L210.59 118.809H211.36" stroke="#076BE0" stroke-linejoin="round"/>
<path d="M212.907 118.809H233.785" stroke="#076BE0" stroke-linejoin="round" stroke-dasharray="3.01 3.01"/>
<path d="M234.56 118.809H235.33L235.808 119.502" stroke="#076BE0" stroke-linejoin="round"/>
<path d="M236.753 120.859L272.074 171.755" stroke="#076BE0" stroke-linejoin="round" stroke-dasharray="2.93 2.93"/>
<path d="M272.546 172.437L273.024 173.131" stroke="#263238" stroke-width="0.5" stroke-linejoin="round"/>
<path d="M135.654 121.843L129.589 126.934L124.057 121.997C122.682 120.871 121.582 119.357 120.861 117.599C120.14 115.84 119.824 113.898 119.942 111.958C120.059 110.017 120.608 108.145 121.534 106.52C122.461 104.895 123.734 103.572 125.231 102.679C126.729 101.786 128.4 101.353 130.085 101.42C131.769 101.488 133.41 102.054 134.85 103.066C136.29 104.077 137.481 105.498 138.307 107.193C139.133 108.889 139.567 110.801 139.568 112.746C139.589 114.512 139.245 116.258 138.565 117.84C137.884 119.423 136.886 120.795 135.654 121.843Z" fill="white" stroke="#263238" stroke-width="0.5" stroke-linecap="round" stroke-linejoin="round"/>
<path d="M121.115 112.686C121.116 114.659 121.624 116.587 122.574 118.226C123.525 119.866 124.875 121.143 126.454 121.897C128.034 122.651 129.772 122.848 131.448 122.462C133.125 122.077 134.665 121.126 135.873 119.731C137.081 118.336 137.904 116.559 138.237 114.624C138.57 112.689 138.399 110.684 137.744 108.862C137.09 107.04 135.982 105.482 134.561 104.387C133.139 103.291 131.468 102.706 129.759 102.706C128.622 102.702 127.496 102.956 126.445 103.456C125.394 103.956 124.439 104.691 123.636 105.619C122.832 106.547 122.196 107.649 121.763 108.862C121.33 110.075 121.11 111.375 121.115 112.686Z" fill="#B9E5FA" stroke="#263238" stroke-width="0.5" stroke-linejoin="round"/>
<path d="M129.757 122.661C131.807 122.663 133.79 121.822 135.351 120.29C135.219 118.664 134.573 117.151 133.537 116.04C132.501 114.928 131.147 114.295 129.732 114.261C128.317 114.227 126.941 114.795 125.866 115.857C124.791 116.919 124.092 118.399 123.902 120.017C125.495 121.72 127.587 122.664 129.757 122.661Z" fill="#263238" stroke="#263238" stroke-width="0.5" stroke-linejoin="round"/>
<path d="M133.377 110.488C133.714 108.09 132.303 105.831 130.226 105.442C128.148 105.053 126.191 106.681 125.853 109.078C125.516 111.476 126.927 113.734 129.004 114.124C131.082 114.513 133.04 112.885 133.377 110.488Z" fill="#263238" stroke="#263238" stroke-width="0.5" stroke-linejoin="round"/>
<path d="M205.361 151.404L199.306 156.494L193.779 151.558C192.403 150.432 191.301 148.916 190.579 147.157C189.858 145.398 189.54 143.454 189.658 141.512C189.776 139.57 190.325 137.696 191.252 136.07C192.179 134.444 193.453 133.12 194.952 132.227C196.451 131.333 198.123 130.9 199.809 130.968C201.495 131.036 203.137 131.604 204.578 132.616C206.019 133.629 207.21 135.052 208.036 136.749C208.862 138.446 209.296 140.36 209.295 142.306C209.314 144.075 208.967 145.822 208.283 147.405C207.598 148.987 206.597 150.358 205.361 151.404Z" fill="white" stroke="#263238" stroke-width="0.5" stroke-linecap="round" stroke-linejoin="round"/>
<path d="M190.821 142.224C190.821 144.196 191.328 146.125 192.278 147.765C193.227 149.405 194.577 150.684 196.157 151.439C197.736 152.194 199.474 152.391 201.151 152.006C202.828 151.621 204.368 150.671 205.577 149.276C206.786 147.882 207.609 146.104 207.943 144.169C208.276 142.235 208.105 140.229 207.451 138.407C206.797 136.584 205.689 135.026 204.267 133.93C202.846 132.834 201.174 132.249 199.465 132.249C198.329 132.246 197.204 132.502 196.154 133.002C195.104 133.502 194.15 134.237 193.347 135.164C192.543 136.091 191.907 137.191 191.473 138.403C191.04 139.614 190.818 140.913 190.821 142.224Z" fill="#B9E5FA" stroke="#263238" stroke-width="0.5" stroke-linejoin="round"/>
<path d="M199.465 152.204C201.514 152.205 203.497 151.364 205.058 149.833C204.926 148.207 204.281 146.694 203.245 145.582C202.209 144.471 200.854 143.837 199.439 143.804C198.025 143.77 196.649 144.338 195.574 145.4C194.499 146.461 193.8 147.942 193.61 149.56C195.204 151.26 197.295 152.204 199.465 152.204Z" fill="#263238" stroke="#263238" stroke-width="0.5" stroke-linejoin="round"/>
<path d="M199.316 143.717C201.421 143.717 203.127 141.748 203.127 139.32C203.127 136.891 201.421 134.922 199.316 134.922C197.211 134.922 195.505 136.891 195.505 139.32C195.505 141.748 197.211 143.717 199.316 143.717Z" fill="#263238" stroke="#263238" stroke-width="0.5" stroke-linejoin="round"/>
<path d="M249.126 148.174C248.669 148.667 248.318 149.276 248.099 149.952C248.099 150.224 250.949 154.752 251.345 155.285C251.808 155.857 252.302 156.396 252.824 156.897L260.631 167.838C260.374 167.968 259.722 168.3 259.603 168.377C259.485 168.454 259.804 168.792 260.215 168.839C260.562 168.847 260.908 168.795 261.242 168.685L265.9 174.944C266.723 175.251 267.604 175.286 268.443 175.044C270.156 174.171 271.721 172.953 273.065 171.447C274.642 169.728 275.119 169.213 275.119 169.213C275.263 169.054 275.391 168.877 275.5 168.685C275.566 168.513 276.116 165.722 275.859 165.058C275.757 164.747 275.579 164.477 275.345 164.282L271.576 158.948C271.758 158.572 271.904 158.175 272.012 157.763C272.038 157.466 271.791 156.986 271.678 157.093C271.565 157.2 271.062 157.982 270.954 158.148L262.957 146.805C262.957 146.805 261.981 145.104 261.35 144.221C260.718 143.338 258.576 140.665 258.15 140.529C258.001 140.483 257.846 140.475 257.695 140.505C257.543 140.535 257.399 140.601 257.272 140.7C257.189 140.783 254.493 142.792 253.569 143.563C252.022 145.013 250.539 146.552 249.126 148.174Z" fill="#263238" stroke="#263238" stroke-width="0.5" stroke-linecap="round" stroke-linejoin="round"/>
<path d="M269.695 158.474H270.296L265.854 152.174L264.436 152.648C264.436 152.648 268.771 158.036 269.695 158.474Z" fill="white"/>
<path d="M263.682 151.641L264.94 150.941L260.168 144.849C260.294 145.726 260.481 146.59 260.728 147.433C260.939 147.694 263.682 151.641 263.682 151.641Z" fill="white"/>
<path d="M250.908 150.882C251.215 150.161 251.641 149.514 252.161 148.98C253.019 148.115 256.958 144.239 257.364 144.097C257.786 143.997 258.219 143.973 258.648 144.025C258.432 143.332 258.126 142.68 257.739 142.093C257.574 141.926 257.372 141.814 257.156 141.769C256.94 141.724 256.717 141.748 256.511 141.839C256.347 141.939 252.916 144.802 252.012 145.839C251.13 146.777 250.29 147.766 249.495 148.802C249.445 149.313 249.559 149.827 249.814 150.248C250.156 150.509 250.523 150.722 250.908 150.882Z" fill="white"/>
<path d="M251.488 152.981C251.488 152.981 253.003 153.84 253.25 154.047C253.496 154.255 256.527 158.38 256.527 158.38L255.618 159.63L252.536 155.144L251.488 152.981Z" fill="white"/>
<path d="M256.511 160.75L257.225 159.357C257.225 159.357 258.956 162.048 259.336 162.783L261.215 166.415L261.072 167.21L256.511 160.75Z" fill="white"/>
<path d="M260.188 163.173C260.188 163.173 265.15 159.286 266.937 156.601L271.411 161.277C271.629 161.567 271.821 161.88 271.986 162.213C271.986 162.367 271.986 162.753 271.986 162.753C271.986 162.753 270.856 165.716 269.3 167.109C267.933 168.274 266.435 169.219 264.847 169.918C264.586 169.929 264.325 169.878 264.082 169.77L263.363 169.301L260.188 163.173Z" fill="white"/>
<path d="M273.353 163.269C273.353 163.269 274.308 165.87 274.349 166.925C274.385 167.476 274.346 168.03 274.236 168.567C274.592 168.116 274.86 167.583 275.022 167.002C275.087 166.44 275.036 165.867 274.873 165.331C274.412 164.6 273.904 163.911 273.353 163.269Z" fill="white"/>
<path d="M264.611 171.572C265.415 172.245 266.26 172.853 267.138 173.391C267.676 173.554 268.23 173.636 268.786 173.634C268.391 173.885 267.972 174.084 267.538 174.227C266.92 174.117 266.323 173.886 265.772 173.545C265.307 172.953 264.916 172.289 264.611 171.572Z" fill="white"/>
<path d="M192.974 207.605C192.974 207.605 188.038 222.136 186.862 226.741C185.686 231.346 185.218 238.393 185.218 238.393L222.881 242.79C222.881 242.79 229.363 240.834 228.895 236.769C228.428 232.703 224.201 225.141 218.31 218.616C212.419 212.091 203.518 206.692 200.704 206.692C198.114 206.819 195.532 207.124 192.974 207.605Z" fill="#757575" stroke="#263238" stroke-width="0.5" stroke-linecap="round" stroke-linejoin="round"/>
<path d="M325.037 223.149L327.25 234.795L318.884 236.78L325.037 223.149Z" fill="#263238" stroke="#263238" stroke-width="0.5" stroke-linecap="round" stroke-linejoin="round"/>
<path d="M350.306 235.696C348.683 230.392 346.249 230.078 346.249 230.078L339.213 209.163C339.213 209.163 331.37 210.408 328.124 213.531C324.878 216.654 317.297 236.644 317.297 236.644L323.25 280.038C323.25 280.038 347.872 274.111 348.683 273.483C349.495 272.855 350.306 266.928 350.579 263.183C350.851 259.437 351.95 241.006 350.306 235.696ZM320.343 234.937C320.343 234.937 326.758 219.037 328.221 216.761C329.29 215.253 330.635 214.039 332.161 213.205L337.245 211.86L342.381 230.824L320.343 234.937Z" fill="white" stroke="#263238" stroke-width="0.5" stroke-linecap="round" stroke-linejoin="round"/>
<path d="M320.117 236.224L327.251 234.807C327.251 234.807 330.081 228.555 330.944 227.695C331.496 227.103 332.172 226.687 332.906 226.487C333.64 226.288 334.406 226.312 335.129 226.558C337.22 227.15 341.647 229.965 341.406 231.814C341.164 233.663 340.789 234.226 338.452 234.653C336.116 235.08 329.957 235.08 329.957 235.08C329.957 235.08 328.36 238.043 327.99 238.636C327.621 239.228 321.591 241.474 321.591 241.474C321.591 241.474 320.851 239.187 320.117 236.224Z" fill="#263238" stroke="#263238" stroke-width="0.5" stroke-linecap="round" stroke-linejoin="round"/>
<path d="M295.916 299.708C295.916 299.708 294.452 301.219 293.758 301.835C293.065 302.452 291.909 303.613 290.759 304.058C289.608 304.502 288.987 304.769 289.064 305.48C289.141 306.191 289.141 306.903 289.526 306.991C289.911 307.08 303.763 306.991 303.763 306.991C304.053 306.27 304.16 305.469 304.072 304.68C304.022 303.705 303.84 302.745 303.532 301.835C303.532 301.835 299.994 300.686 298.453 299.708C296.912 298.73 295.916 299.708 295.916 299.708Z" fill="white" stroke="#263238" stroke-width="0.5" stroke-linecap="round" stroke-linejoin="round"/>
<path d="M303.995 306.191H289.136C289.188 306.606 289.275 306.932 289.527 306.991C289.912 307.08 303.764 306.991 303.764 306.991C303.877 306.74 303.956 306.47 303.995 306.191Z" fill="white" stroke="#263238" stroke-width="0.5" stroke-linecap="round" stroke-linejoin="round"/>
<path d="M291.37 239.133C290.787 244.174 290.787 249.282 291.37 254.323C292.397 262.027 293.425 267.557 293.425 267.557C293.425 267.557 294.965 275.261 295.119 277.768C295.274 280.275 296.737 293.402 296.66 293.669C296.531 294.099 296.454 294.548 296.429 295.002C296.429 295.441 295.428 296.063 295.582 296.596C295.735 297.626 295.838 298.665 295.89 299.708C295.89 299.708 297.657 299.352 298.427 299.708C299.198 300.063 302.659 301.486 302.659 301.486L303.507 301.835C303.777 301.59 303.999 301.282 304.159 300.931C304.318 300.579 304.411 300.193 304.431 299.797C304.431 298.552 303.044 297.13 303.044 297.13C303.044 297.13 303.969 296.685 304.072 296.241C304.174 295.796 303.686 294.202 303.686 293.935C303.686 293.669 303.532 291.002 303.532 290.468C303.532 289.935 303.609 283.185 303.609 282.391C303.609 281.596 302.916 269.352 302.916 269.352L302.151 260.463C302.151 260.463 303.995 270.496 304.765 273.697C305.535 276.897 307.765 290.291 307.847 290.747C308.018 292.122 308.121 293.507 308.155 294.895C308.078 295.162 307.235 295.779 307.313 296.134C307.39 296.49 307.924 300.935 307.924 300.935L313.466 301.468C313.811 300.718 314.12 299.947 314.39 299.157C314.698 298.179 314.159 297.29 314.159 296.934C314.159 296.579 314.621 296.667 314.467 295.251C314.313 293.835 314.159 292.673 314.159 292.673C314.159 292.673 313.774 291.962 313.697 289.473C313.62 286.984 314.852 280.15 314.005 276.245C313.157 272.339 312.161 269.05 312.084 264.783C312.007 260.516 312.007 252.527 311.699 250.4C311.391 248.272 310.898 241.599 310.898 241.599L310.697 240.627L291.37 239.133Z" fill="#8C8C8C" stroke="#263238" stroke-width="0.5" stroke-linecap="round" stroke-linejoin="round"/>
<path d="M297.991 251.395L300.918 252.989L301.92 259.473" stroke="#263238" stroke-width="0.5" stroke-linecap="round" stroke-linejoin="round"/>
<path d="M308.535 299.636C308.265 300.766 307.906 301.865 307.462 302.92C306.922 303.986 306.075 304.609 305.844 305.231C305.698 305.808 305.646 306.41 305.69 307.009H313.907C313.907 307.009 314.524 306.12 314.524 303.986C314.524 301.853 313.83 300.792 313.214 299.548C312.598 298.303 310.538 297.396 308.535 299.636Z" fill="white" stroke="#263238" stroke-width="0.5" stroke-linecap="round" stroke-linejoin="round"/>
<path d="M314.354 305.782L314.226 305.747H305.72C305.674 306.159 305.664 306.576 305.689 306.991H313.907C314.121 306.625 314.273 306.214 314.354 305.782Z" fill="white" stroke="#263238" stroke-width="0.5" stroke-linecap="round" stroke-linejoin="round"/>
<path d="M296.665 200.955C295.843 201.931 294.926 202.794 293.932 203.527C292.725 204.291 290.732 204.991 290.373 205.826C290.013 206.662 289.587 212.44 290.132 215.433C290.437 217.157 290.841 218.855 291.339 220.518L291.76 231.589L291.097 240.087C291.097 240.087 298.401 241.201 303.044 241.824C305.653 242.221 308.3 242.151 310.892 241.616C310.892 241.616 311.133 236.531 311.195 233.912C311.256 231.292 311.374 218.799 311.374 218.799L315.057 225.911C315.057 225.911 317.625 227.819 321.765 224.726C322.936 223.849 318.436 218.284 318.139 216.547C317.841 214.811 315.899 211.071 315.899 211.071C315.899 211.071 314.358 205.643 313.126 204.25C311.893 202.857 310.285 202.507 308.539 202.229C306.956 201.848 305.409 201.294 303.917 200.575L296.665 200.955Z" fill="#F44336" stroke="#263238" stroke-width="0.5" stroke-linecap="round" stroke-linejoin="round"/>
<path d="M317.79 218.515C317.79 218.515 315.89 218.818 315.371 222.605" stroke="#263238" stroke-width="0.5" stroke-linecap="round" stroke-linejoin="round"/>
<path d="M314.158 220.015C314.158 220.015 315.458 218.515 316.927 218.515" stroke="#263238" stroke-width="0.5" stroke-linecap="round" stroke-linejoin="round"/>
<path d="M291.535 187.147C291.535 187.147 291.684 193.18 291.889 194.169C292.094 195.159 293.497 197.186 294.098 198.11C294.619 198.779 295.336 199.201 296.111 199.296C296.26 199.296 296.666 199.995 296.666 200.979C296.666 201.963 296.311 202.164 296.363 204.979C296.399 206.747 296.532 208.511 296.763 210.26C298.215 209.018 299.546 207.6 300.733 206.028C303.25 202.893 303.902 200.576 303.902 200.576C303.258 199.883 302.759 199.029 302.444 198.081C302.094 196.747 302.141 193.381 302.141 193.381C302.141 193.381 303.954 191.757 304.051 190.827C304.149 189.896 303.399 188.16 303.399 188.16C303.399 188.16 302.546 184.681 301.591 182.939C300.636 181.196 300.482 180.325 297.318 181.315C294.154 182.305 293.045 182.53 292.038 183.401C291.465 183.857 291.055 184.537 290.882 185.315L291.535 187.147Z" fill="#FAD7B0" stroke="#263238" stroke-width="0.5" stroke-linecap="round" stroke-linejoin="round"/>
<path d="M296.111 199.272C296.617 199.213 297.12 199.116 297.616 198.981C298.17 198.809 298.925 198.46 298.925 198.46L296.666 200.955L296.111 199.272Z" fill="#263238" stroke="#263238" stroke-width="0.5" stroke-linecap="round" stroke-linejoin="round"/>
<path d="M293.368 193.748C293.368 193.748 293.717 194.388 294.221 194.157C294.724 193.926 295.012 193.76 295.012 193.76" stroke="#263238" stroke-width="0.5" stroke-linecap="round" stroke-linejoin="round"/>
<path d="M294.755 195.444C295.3 195.51 295.851 195.411 296.352 195.156C296.854 194.901 297.29 194.5 297.616 193.992" stroke="#263238" stroke-width="0.5" stroke-linecap="round" stroke-linejoin="round"/>
<path d="M295.407 189.179C295.407 189.179 297.014 188.657 297.867 189.179" stroke="#263238" stroke-width="0.5" stroke-linecap="round" stroke-linejoin="round"/>
<path d="M293.296 189.404C293.296 189.404 292.438 188.77 291.935 189.523" stroke="#263238" stroke-width="0.5" stroke-linecap="round" stroke-linejoin="round"/>
<path d="M292.808 190.809C292.849 191.194 292.736 191.526 292.561 191.55C292.387 191.573 292.212 191.283 292.171 190.898C292.13 190.513 292.243 190.187 292.418 190.163C292.592 190.139 292.782 190.43 292.808 190.809Z" fill="#263238"/>
<path d="M296.403 190.649C296.439 191.034 296.331 191.36 296.156 191.383C295.982 191.407 295.802 191.123 295.761 190.737C295.72 190.352 295.833 190.026 296.007 189.997C296.182 189.967 296.377 190.263 296.403 190.649Z" fill="#263238"/>
<path d="M298.822 183.555C298.822 183.555 297.117 185.06 296.562 185.179C296.008 185.297 294.051 184.539 293.342 184.48C292.633 184.42 291.334 185.665 291.334 185.665L291.534 187.17C291.534 187.17 289.624 186.649 289.223 185.783C288.822 184.918 290.178 183.751 290.127 183.46C290.076 183.17 289.372 182.068 289.875 181.718C290.761 181.265 291.668 180.869 292.592 180.533C292.592 180.533 293.748 177.747 294.549 177.688C295.328 177.7 296.103 177.797 296.866 177.978C297.102 177.73 297.379 177.54 297.681 177.42C297.983 177.299 298.303 177.251 298.622 177.279C299.577 177.457 300.985 179.484 300.985 179.484C300.985 179.484 303.096 179.253 303.501 180.296C303.907 181.339 304.303 182.737 304.015 183.851C303.758 184.977 303.555 186.119 303.409 187.271V188.142C302.957 188.233 302.528 188.436 302.151 188.735C301.75 189.138 301.801 189.488 301.498 189.778C301.195 190.068 301.046 190.068 300.846 189.95C300.646 189.831 300.543 189.488 300.445 188.794C300.348 188.101 300.24 187.923 299.839 187.745C299.323 187.524 298.859 187.167 298.483 186.702C298.083 186.181 297.579 185.718 297.877 185.25C298.175 184.782 298.822 183.555 298.822 183.555Z" fill="#263238" stroke="#263238" stroke-width="0.5" stroke-linecap="round" stroke-linejoin="round"/>
<path d="M309.141 215.155L311.375 218.776L307.631 217.318" stroke="#263238" stroke-width="0.5" stroke-linecap="round" stroke-linejoin="round"/>
<path d="M209.002 240.704C208.812 240.011 214.97 241.107 214.97 241.107C214.97 241.107 216.917 231.18 216.377 230.114C215.838 229.047 210.805 227.002 210.805 227.002L199.115 226.291C199.115 226.291 194.082 228.745 194.005 229.373C193.964 229.705 190.682 234.392 189.285 238.102L209.002 240.704Z" fill="#B9E5FA" stroke="#263238" stroke-width="0.5" stroke-linecap="round" stroke-linejoin="round"/>
<path d="M201.545 225.769C201.545 225.769 200.811 226.617 200.811 229.011C200.811 231.405 202.156 234.511 202.156 234.511L206.779 231.696L212.177 234.878C212.177 234.878 212.69 228.952 210.785 227.002C208.879 225.052 202.644 224.08 201.545 225.769Z" fill="#00386C" stroke="#263238" stroke-width="0.5" stroke-linecap="round" stroke-linejoin="round"/>
<path d="M202.357 226.848C202.927 228.72 203.598 230.548 204.365 232.324C205.392 234.54 207.693 236.158 207.693 236.158C207.693 236.158 208.844 231.731 208.972 229.521C209.068 228.387 209.025 227.244 208.844 226.125L202.357 226.848Z" fill="#FAD7B0" stroke="#263238" stroke-width="0.5" stroke-linecap="round" stroke-linejoin="round"/>
<path d="M198.792 220.915C198.792 220.915 199.218 225.787 199.649 226.214C200.081 226.64 202.341 226.848 202.341 226.848L207.235 227.203C207.749 226.143 208.031 220.092 206.321 215.41C204.611 210.728 202.464 209.969 202.033 210.817C202.033 210.817 199.526 214.77 199.649 215.617C199.773 216.465 200.014 216.891 199.891 217.312C199.768 217.733 198.304 218.497 198.119 219.292C197.934 220.086 198.792 220.915 198.792 220.915Z" fill="#FAD7B0" stroke="#263238" stroke-width="0.5" stroke-linecap="round" stroke-linejoin="round"/>
<path d="M199.968 221.833C199.968 221.833 201.314 221.833 201.992 221.128" stroke="#263238" stroke-width="0.5" stroke-linecap="round" stroke-linejoin="round"/>
<path d="M201.012 217.454C201.202 217.398 201.4 217.395 201.591 217.444C201.782 217.493 201.961 217.595 202.111 217.739" stroke="#263238" stroke-width="0.5" stroke-linecap="round" stroke-linejoin="round"/>
<path d="M200.585 215.901C200.585 215.901 201.746 214.633 202.419 216.328" stroke="#263238" stroke-width="0.5" stroke-linecap="round" stroke-linejoin="round"/>
<path d="M202.049 210.817C202.049 210.817 202.563 215.617 203.95 219.078C204.529 220.646 205.216 222.158 206.004 223.6C206.004 223.6 206.004 226.356 205.27 227.156C204.855 227.614 204.302 227.867 203.729 227.861C203.729 227.861 202.871 229.272 205.624 229.698C208.377 230.125 209.116 228.638 210.092 228.513C210.581 228.411 211.082 228.435 211.561 228.584C211.71 228.007 211.731 227.396 211.623 226.806C211.438 225.888 211.32 225.182 211.32 225.182C211.32 225.182 213.153 222.711 213.092 219.884C213.03 217.057 213.765 215.439 212.419 212.121C211.073 208.802 203.975 208.233 202.63 208.162C201.284 208.091 201.089 208.233 200.488 209.347C199.887 210.461 198.1 212.174 198.1 213.442C198.1 214.71 199.872 217.324 199.872 217.324L199.63 215.629C199.63 215.629 201.135 212.725 202.049 210.817Z" fill="#263238" stroke="#263238" stroke-width="0.5" stroke-linecap="round" stroke-linejoin="round"/>
<path d="M246.702 290.255C188.911 288.139 142.064 293.218 142.064 301.628C142.064 305.184 150.411 308.739 164.401 311.839C151.756 312.135 142.537 313.024 142.537 314.132C142.537 315.46 156.271 316.533 173.22 316.533C179.352 316.533 185.058 316.39 189.85 316.147C206.219 318.287 225.741 319.899 246.702 320.669C304.493 322.785 351.334 317.694 351.334 309.296C351.334 300.899 304.493 292.376 246.702 290.255Z" fill="#263238" stroke="#263238" stroke-width="0.5" stroke-linecap="round" stroke-linejoin="round"/>
<path d="M144.71 279.392C144.71 279.392 145.984 282.574 146.893 283.659C147.802 284.743 164.217 289.431 164.217 289.431L217.411 302.866L223.857 302.066L246.384 302.902C246.384 302.902 250.878 290.213 245.967 277.714C241.057 265.215 216.517 260.332 209.578 262.892C202.64 265.452 186.389 273.637 174.71 269.145C163.03 264.652 153.724 255.863 149.831 257.037C145.937 258.21 144.078 265.435 144.078 268.558C144.078 271.681 144.71 279.392 144.71 279.392Z" fill="#263238" stroke="#263238" stroke-width="0.5" stroke-linecap="round" stroke-linejoin="round"/>
<path d="M259.064 296.774C258.601 283.872 251.118 273.394 242.356 273.365H232.859L233.024 277.987C229.315 282.237 227.056 289.022 227.333 296.679C227.61 304.336 230.353 311.134 234.369 315.407L234.539 320.089H244.035C252.798 320.113 259.526 309.676 259.064 296.774Z" fill="#263238" stroke="#263238" stroke-width="0.5" stroke-linecap="round" stroke-linejoin="round"/>
<path d="M235.939 319.99C244.626 318.88 250.667 307.56 249.434 294.707C248.2 281.853 240.158 272.334 231.472 273.444C222.785 274.554 216.744 285.873 217.977 298.727C219.211 311.58 227.253 321.1 235.939 319.99Z" fill="#757575" stroke="#263238" stroke-width="0.5" stroke-linecap="round" stroke-linejoin="round"/>
<path d="M245.971 304.674C246.131 304.082 246.264 303.489 246.382 302.896C246.495 302.304 246.593 301.676 246.665 301.041C247.184 296.632 246.652 292.143 245.124 288.057L245.098 287.985C244.878 287.393 244.636 286.842 244.379 286.296L244.328 286.196C244.071 285.656 243.814 285.135 243.506 284.637L243.46 284.554C240.892 280.192 237.122 277.395 233.008 277.383C229.485 277.383 226.362 279.404 224.123 282.717C223.972 282.938 223.828 283.163 223.691 283.392C223.553 283.624 223.419 283.855 223.285 284.098C223.152 284.335 223.029 284.578 222.905 284.821C222.787 285.064 222.674 285.313 222.561 285.562V285.597C222.455 285.838 222.352 286.087 222.253 286.344C222.253 286.344 222.253 286.385 222.227 286.403C222.135 286.646 222.043 286.895 221.955 287.144L221.924 287.233C221.837 287.476 221.76 287.725 221.683 287.974C221.683 288.015 221.657 288.051 221.647 288.092C221.575 288.329 221.508 288.578 221.442 288.821C221.426 288.87 221.412 288.919 221.401 288.969C221.339 289.206 221.282 289.449 221.226 289.686C221.215 289.748 221.202 289.81 221.185 289.87C221.133 290.101 221.087 290.338 221.041 290.575C221.041 290.646 221.015 290.718 221 290.795C220.959 291.02 220.923 291.251 220.887 291.476C220.887 291.565 220.861 291.648 220.851 291.731C220.815 291.956 220.789 292.175 220.764 292.401C220.764 292.501 220.764 292.596 220.728 292.691C220.728 292.91 220.692 293.13 220.671 293.349C220.671 293.456 220.671 293.556 220.671 293.663C220.671 293.882 220.646 294.102 220.635 294.321V294.647C220.635 294.878 220.635 295.115 220.635 295.346V295.648C220.635 295.98 220.635 296.318 220.635 296.656C220.635 296.994 220.676 297.474 220.707 297.883C220.707 297.977 220.707 298.072 220.733 298.173C220.764 298.517 220.8 298.866 220.846 299.21C220.846 299.258 220.846 299.311 220.846 299.364C220.952 300.205 221.1 301.038 221.288 301.859C222.098 305.665 223.8 309.14 226.208 311.905L226.29 311.999C226.567 312.302 226.855 312.592 227.148 312.865L227.204 312.918C229.239 314.885 231.797 315.987 234.451 316.041C237.056 316.032 239.568 314.923 241.513 312.924C243.632 310.703 245.176 307.847 245.971 304.674Z" fill="white" stroke="#263238" stroke-width="0.5" stroke-linecap="round" stroke-linejoin="round"/>
<path d="M245.335 297.354C245.262 295.185 244.889 293.042 244.231 291.007L239.008 294.782C239.242 295.609 239.378 296.468 239.414 297.337V297.722L245.341 298.836C245.356 298.344 245.356 297.858 245.335 297.354Z" fill="#263238" stroke="#263238" stroke-width="0.5" stroke-linecap="round" stroke-linejoin="round"/>
<path d="M236.085 290.432C236.644 290.79 237.144 291.257 237.564 291.813L241.242 285.294C240.03 283.727 238.51 282.52 236.809 281.774L236.085 290.432Z" fill="#263238" stroke="#263238" stroke-width="0.5" stroke-linecap="round" stroke-linejoin="round"/>
<path d="M238.664 301.586C238.412 302.183 238.083 302.733 237.688 303.216L240.708 311.009C242.226 309.501 243.405 307.592 244.144 305.444L238.664 301.586Z" fill="#263238" stroke="#263238" stroke-width="0.5" stroke-linecap="round" stroke-linejoin="round"/>
<path d="M229.783 293.283L224.472 289.01C223.653 291.249 223.217 293.65 223.188 296.08L229.141 296.276C229.196 295.242 229.413 294.227 229.783 293.283Z" fill="#263238" stroke="#263238" stroke-width="0.5" stroke-linecap="round" stroke-linejoin="round"/>
<path d="M231.597 290.682C232.025 290.333 232.506 290.078 233.014 289.929L232.146 281.265C230.248 281.677 228.505 282.753 227.154 284.346L231.597 290.682Z" fill="#263238" stroke="#263238" stroke-width="0.5" stroke-linecap="round" stroke-linejoin="round"/>
<path d="M235.1 304.816C234.913 304.847 234.724 304.863 234.535 304.864C234.006 304.858 233.484 304.737 232.994 304.508L230.077 311.975C231.525 312.985 233.182 313.528 234.874 313.546C235.33 313.546 235.785 313.505 236.235 313.421L235.1 304.816Z" fill="#263238" stroke="#263238" stroke-width="0.5" stroke-linecap="round" stroke-linejoin="round"/>
<path d="M229.743 300.549L223.857 302.066C224.426 304.439 225.402 306.656 226.728 308.585L230.503 302.155C230.201 301.652 229.946 301.114 229.743 300.549Z" fill="#263238" stroke="#263238" stroke-width="0.5" stroke-linecap="round" stroke-linejoin="round"/>
<path d="M169.979 283.73C169.758 272.92 166.25 264.137 162.141 264.119H152.665L153.451 303.263H162.927C167.041 303.287 170.194 294.539 169.979 283.73Z" fill="#263238" stroke="#263238" stroke-width="0.5" stroke-linecap="round" stroke-linejoin="round"/>
<path d="M153.562 303.261C157.671 303.119 160.775 294.242 160.495 283.432C160.215 272.623 156.658 263.975 152.55 264.116C148.441 264.258 145.338 273.135 145.617 283.945C145.897 294.754 149.454 303.402 153.562 303.261Z" fill="#757575" stroke="#263238" stroke-width="0.5" stroke-linecap="round" stroke-linejoin="round"/>
<path d="M158.818 290.35C158.89 289.87 158.952 289.372 159.008 288.862C159.065 288.353 159.106 287.837 159.142 287.31C159.221 286.117 159.249 284.92 159.224 283.724C159.182 281.264 158.911 278.816 158.418 276.423V276.363C158.315 275.878 158.202 275.409 158.084 274.953V274.864C157.966 274.414 157.837 273.981 157.699 273.56C157.699 273.56 157.699 273.513 157.699 273.495C156.492 269.833 154.725 267.492 152.794 267.48C151.14 267.48 149.676 269.175 148.623 271.954C148.551 272.138 148.485 272.328 148.418 272.547C148.356 272.737 148.289 272.938 148.228 273.14C148.166 273.341 148.11 273.543 148.053 273.732C147.997 273.934 147.94 274.141 147.889 274.325C147.837 274.532 147.791 274.74 147.74 274.947C147.742 274.965 147.742 274.983 147.74 275C147.699 275.202 147.652 275.415 147.611 275.593V275.664C147.575 275.872 147.534 276.079 147.498 276.286V276.381C147.468 276.589 147.432 276.79 147.401 276.974V277.098C147.37 277.294 147.344 277.495 147.319 277.691C147.319 277.744 147.319 277.798 147.319 277.845C147.293 278.041 147.272 278.236 147.252 278.438C147.252 278.497 147.252 278.556 147.252 278.621C147.252 278.811 147.216 279.001 147.201 279.214C147.201 279.291 147.201 279.356 147.201 279.433C147.201 279.617 147.175 279.807 147.165 279.99C147.165 280.073 147.165 280.151 147.165 280.233C147.165 280.417 147.165 280.601 147.165 280.785C147.165 280.874 147.165 280.957 147.165 281.045C147.165 281.229 147.165 281.413 147.165 281.597C147.165 281.691 147.165 281.78 147.165 281.875C147.165 282.071 147.165 282.266 147.165 282.468C147.165 282.551 147.165 282.634 147.165 282.717C147.165 282.995 147.165 283.28 147.165 283.564C147.165 283.849 147.165 284.252 147.201 284.589C147.201 284.672 147.201 284.749 147.201 284.832C147.201 285.123 147.231 285.425 147.252 285.698C147.252 285.745 147.252 285.787 147.252 285.834C147.303 286.545 147.375 287.239 147.457 287.92C147.77 290.868 148.554 293.723 149.769 296.342L149.81 296.419C149.938 296.673 150.072 296.916 150.21 297.142C150.216 297.159 150.224 297.176 150.236 297.189C151.232 298.837 152.403 299.803 153.636 299.809C154.869 299.815 156.014 298.848 156.949 297.189C157.943 295.067 158.578 292.746 158.818 290.35Z" fill="white" stroke="#263238" stroke-width="0.5" stroke-linecap="round" stroke-linejoin="round"/>
<path d="M350.542 289.301C350.08 276.399 342.602 265.915 333.84 265.891H324.338C315.576 265.891 308.853 276.304 309.315 289.206C309.777 302.108 317.255 312.586 326.017 312.61H335.519C344.281 312.639 351.004 302.197 350.542 289.301Z" fill="#263238" stroke="#263238" stroke-width="0.5" stroke-linecap="round" stroke-linejoin="round"/>
<path d="M354.313 281.028C354.313 281.028 353.959 272.861 353.075 270.004C352.192 267.148 349.536 262.893 349.536 262.893C349.536 262.893 346.886 255.745 342.464 251.259C338.042 246.773 330.79 242.245 329.023 241.226C327.256 240.206 324.95 239.596 321.591 236.941C318.232 234.286 297.359 217.549 290.816 213.057C284.272 208.565 270.117 206.325 267.287 205.714C264.457 205.104 231.915 202.443 220.595 202.443C209.275 202.443 185.927 203.035 173.015 208.766C173.015 208.766 168.767 210.195 168.238 211.623C167.709 213.051 167.355 214.076 167.355 214.076L154.622 235.512C154.622 235.512 150 235.103 148.608 239.596C147.216 244.088 147.725 250.204 147.725 250.204C147.725 250.204 144.361 259.799 144.186 266.94C144.065 271.098 144.237 275.26 144.7 279.386C144.7 279.386 143.816 266.348 146.472 262.241C149.127 258.134 154.607 261.221 156.744 268.57C158.88 275.919 161.366 289.591 161.366 289.591L217.437 302.861C217.437 302.861 214.581 285.721 218.31 275.931C222.039 266.14 239.368 266.745 242.542 284.501C245.716 302.256 244.663 305.522 244.663 305.522C244.663 305.522 256.517 308.378 292.598 307.768C328.679 307.157 348.494 302.256 353.799 300.656C353.799 300.656 355.037 293.106 355.391 288.614C355.631 286.019 355.258 283.398 354.313 281.028ZM225.721 239.999C225.491 240.636 225.127 241.198 224.663 241.634C223.246 243.264 219.358 241.634 219.358 241.634C219.358 241.634 202.527 238.547 187.478 235.838C188.382 224.691 192.866 213.91 195.608 208.251C198.464 208.517 204.632 209.436 211.751 215.303C219.887 222.042 226.075 238.979 225.721 239.999Z" fill="white" stroke="#263238" stroke-width="0.5" stroke-linecap="round" stroke-linejoin="round"/>
<path d="M194.005 229.372C194.005 229.372 187.097 238.671 186.84 239.702C186.583 240.733 187.225 244.129 189.655 244.277C192.084 244.425 205.505 238.831 205.505 238.831L197.287 237.563L197.96 235.275" fill="#B9E5FA"/>
<path d="M194.005 229.372C194.005 229.372 187.097 238.671 186.84 239.702C186.583 240.733 187.225 244.129 189.655 244.277C192.084 244.425 205.505 238.831 205.505 238.831L197.287 237.563L197.96 235.275" stroke="#263238" stroke-width="0.5" stroke-linecap="round" stroke-linejoin="round"/>
<path d="M190.297 236.899L197.297 237.563" stroke="#263238" stroke-width="0.5" stroke-linecap="round" stroke-linejoin="round"/>
<path d="M355.375 288.578C355.614 285.997 355.247 283.389 354.312 281.028C354.312 281.028 354.199 278.414 353.942 275.629C331.811 283.161 292.207 283.671 281.164 282.545C268.478 281.253 245.967 277.715 244.97 273.507C243.974 269.299 235.258 259.728 229.295 257.144C224.159 254.927 164.786 245.439 147.919 242.772C147.609 245.233 147.542 247.726 147.719 250.204C147.719 250.204 144.355 259.799 144.18 266.94C144.059 271.098 144.231 275.26 144.694 279.386C144.694 279.386 143.81 266.348 146.466 262.241C149.121 258.134 154.601 261.221 156.738 268.57C158.874 275.919 161.36 289.591 161.36 289.591L217.431 302.861C217.431 302.861 214.58 285.721 218.309 275.931C222.038 266.14 239.367 266.745 242.541 284.5C245.715 302.256 244.662 305.522 244.662 305.522C244.662 305.522 256.516 308.378 292.597 307.768C328.678 307.157 348.493 302.256 353.799 300.656C353.783 300.62 355.021 293.07 355.375 288.578Z" fill="#D9D9D9"/>
<path d="M215.227 237.083C215.982 232.578 218.504 224.157 218.504 224.157C218.504 224.157 222.695 231.002 224.596 235.802C226.496 240.603 224.596 242.393 222.865 242.79C221.134 243.187 214.38 240.597 214.38 240.597L215.227 237.083Z" fill="#263238" stroke="#263238" stroke-width="0.5" stroke-linecap="round" stroke-linejoin="round"/>
<path d="M190.765 208.233C186.703 208.494 182.663 209.088 178.675 210.011C174.602 211.03 173.189 211.237 172.481 212.049C171.772 212.861 164.895 222.859 162.398 230.001C162.501 230.512 162.747 230.97 163.1 231.303C163.452 231.635 163.89 231.824 164.345 231.838C164.925 231.838 172.352 233.13 181.571 234.801C183.117 228.448 186.22 217.288 190.765 208.233Z" fill="#757575" stroke="#263238" stroke-width="0.5" stroke-linecap="round" stroke-linejoin="round"/>
<path d="M187.637 245.469L182.604 244.42C182.44 244.476 182.287 244.569 182.155 244.694C182.023 244.819 181.913 244.974 181.833 245.148C181.753 245.323 181.705 245.514 181.69 245.71C181.675 245.907 181.694 246.105 181.746 246.293C182.116 247.715 182.773 247.561 182.773 247.561L186.964 248.337C187.24 248.372 187.517 248.285 187.74 248.095C187.964 247.906 188.117 247.626 188.171 247.312C188.397 246.168 188.68 246.02 187.637 245.469Z" fill="#263238" stroke="#263238" stroke-width="0.5" stroke-linecap="round" stroke-linejoin="round"/>
<path d="M162.197 240.407L158.355 239.56C158.225 239.608 158.104 239.686 158 239.789C157.896 239.892 157.811 240.017 157.75 240.159C157.688 240.3 157.652 240.454 157.643 240.612C157.634 240.77 157.653 240.928 157.698 241.077C157.98 242.233 158.489 242.108 158.489 242.108L161.689 242.742C161.906 242.766 162.123 242.693 162.295 242.538C162.467 242.382 162.581 242.156 162.613 241.907C162.777 240.965 162.993 240.858 162.197 240.407Z" stroke="#263238" stroke-width="0.5" stroke-linecap="round" stroke-linejoin="round"/>
<path d="M192.973 207.605C192.973 207.605 185.782 223.013 184.54 235.773" stroke="#263238" stroke-width="0.5" stroke-linecap="round" stroke-linejoin="round"/>
<path d="M182.906 238.386C182.906 238.386 179.63 244.775 179.506 246.956C179.383 249.137 179.758 275.267 180.39 280.061" stroke="#263238" stroke-width="0.5" stroke-linecap="round" stroke-linejoin="round"/>
<path d="M217.508 247.537C217.508 247.537 214.74 258.134 214.616 266.122C214.493 274.111 214.365 289.064 214.365 289.064" stroke="#263238" stroke-width="0.5" stroke-linecap="round" stroke-linejoin="round"/>
<path d="M162.013 232.869C162.013 232.869 156.101 239.115 155.598 241.166C155.095 243.217 155.721 260.623 155.721 260.623" stroke="#263238" stroke-width="0.5" stroke-linecap="round" stroke-linejoin="round"/>
<path d="M163.148 280.352C163.148 280.352 164.026 283.256 165.916 283.985C167.806 284.714 213.61 294.895 213.61 294.895" stroke="#263238" stroke-width="0.5" stroke-linecap="round" stroke-linejoin="round"/>
<path d="M295.864 289.561C295.864 289.561 330.943 290.118 343.978 285.478C343.978 285.478 342.689 295.5 340.275 297.544C337.861 299.589 320.322 301.693 311.796 302.001C302.14 302.374 296.67 301.26 296.67 301.26L295.864 289.561Z" fill="#263238" stroke="#263238" stroke-width="0.5" stroke-linecap="round" stroke-linejoin="round"/>
<path d="M289.572 264.315L293.111 272.671C293.111 272.671 312.9 273.228 315.155 273.412C317.41 273.596 319.819 274.9 322.397 273.412C324.975 271.925 336.074 270.259 337.358 270.259C338.642 270.259 340.255 271.557 340.255 271.557C340.255 271.557 337.358 263.201 336.233 262.46C335.388 261.967 334.436 261.773 333.496 261.903C333.013 261.903 309.521 259.858 289.572 264.315Z" fill="#263238" stroke="#263238" stroke-width="0.5" stroke-linecap="round" stroke-linejoin="round"/>
<path d="M252.269 247.638C252.269 247.638 243.851 246.145 240.616 247.448C237.38 248.752 238.998 253.801 244.499 258.466C249.999 263.13 254.534 267.616 260.2 268.363C265.865 269.11 275.572 271.539 276.055 269.483C276.537 267.426 274.76 259.965 268.289 254.548C261.817 249.131 252.269 247.638 252.269 247.638Z" fill="#F7DE5E" stroke="#263238" stroke-width="0.5" stroke-linecap="round" stroke-linejoin="round"/>
<path d="M319.911 236.994L318.293 237.557L310.486 237.812C306.377 237.954 300.933 238.126 294.924 238.31C286.629 238.564 277.25 238.831 268.781 239.039C255.833 239.353 244.996 239.513 243.368 239.234C240.095 238.749 237.021 237.154 234.534 234.653C232.661 232.719 231.104 230.412 229.937 227.843C226.049 219.629 216.183 209.554 216.183 209.554C231.714 207.492 268.776 208.245 272.982 208.434C274.284 208.506 275.58 208.682 276.86 208.962C281.349 209.88 287.209 211.925 290.609 214.58C291.21 215.054 292.181 215.801 293.403 216.737C296.244 218.93 300.466 222.16 304.703 225.396L312.094 231.038L319.911 236.994Z" fill="#D9D9D9" stroke="#263238" stroke-width="0.5" stroke-linecap="round" stroke-linejoin="round"/>
<path d="M290.62 214.586C291.221 215.06 292.191 215.807 293.414 216.743L268.761 239.039C255.812 239.353 244.975 239.513 243.347 239.234C240.075 238.749 237 237.155 234.513 234.653L276.86 208.962C281.359 209.886 287.22 211.925 290.62 214.586Z" fill="#757575"/>
<path d="M312.104 231.044L310.486 237.812C306.377 237.954 300.933 238.126 294.924 238.31L304.713 225.402L312.104 231.044Z" fill="#757575"/>
<path d="M285.028 258.744C286.014 259.899 286.969 261.114 287.873 262.406" stroke="#263238" stroke-width="0.5" stroke-linecap="round" stroke-linejoin="round"/>
<path d="M261.169 242.221C261.169 242.221 273.419 246.37 283.326 256.842" stroke="#263238" stroke-width="0.5" stroke-linecap="round" stroke-linejoin="round"/>
<path d="M339.618 262.057C340.912 264.861 341.851 267.865 342.407 270.976" stroke="#263238" stroke-width="0.5" stroke-linecap="round" stroke-linejoin="round"/>
<path d="M320.881 242.968C320.881 242.968 331.734 247.822 338.241 259.36" stroke="#263238" stroke-width="0.5" stroke-linecap="round" stroke-linejoin="round"/>
<path d="M270.877 293.2C270.877 295.364 269.069 297.124 266.83 297.124C264.59 297.124 262.788 295.346 262.788 293.2C262.788 291.055 264.595 289.277 266.83 289.277C269.064 289.277 270.877 291.037 270.877 293.2Z" fill="white" stroke="#263238" stroke-width="0.5" stroke-linecap="round" stroke-linejoin="round"/>
<path d="M354.667 286.83C354.323 288.696 353.229 290.012 352.227 289.763C351.226 289.514 350.687 287.808 351.026 285.941C351.365 284.074 352.459 282.758 353.465 283.007C354.472 283.256 355.006 284.963 354.667 286.83Z" fill="white" stroke="#263238" stroke-width="0.5" stroke-linecap="round" stroke-linejoin="round"/>
<path d="M216.799 240.709C216.799 240.709 213.979 235.221 212.176 234.878C210.373 234.534 202.813 234.19 201.18 235.393C199.546 236.596 199.988 240.537 200.584 241.563C201.18 242.588 203.558 243.11 205.638 242.938C207.718 242.766 214.698 243.453 214.698 243.453C214.698 243.453 218.858 246.879 220.348 246.535C221.837 246.191 223.763 242.422 222.428 240.366C221.092 238.309 219.028 238.819 216.799 240.709Z" fill="#263238" stroke="#263238" stroke-width="0.5" stroke-linecap="round" stroke-linejoin="round"/>
<path d="M216.799 240.709L221.704 241.907" stroke="#263238" stroke-width="0.5" stroke-linecap="round" stroke-linejoin="round"/>
<path d="M173.015 208.772C173.015 208.772 168.767 210.201 168.238 211.629C167.709 213.057 167.35 214.082 167.35 214.082L154.622 235.512C154.622 235.512 150 235.103 148.608 239.596C147.216 244.088 147.725 250.204 147.725 250.204C147.725 250.204 144.361 259.799 144.186 266.94C144.065 271.098 144.237 275.26 144.7 279.386C144.7 279.386 143.816 266.348 146.472 262.241C149.127 258.134 154.607 261.221 156.744 268.57C158.88 275.919 161.366 289.591 161.366 289.591L217.437 302.861C217.437 302.861 214.581 285.721 218.31 275.931C222.039 266.14 239.368 266.745 242.542 284.501C245.716 302.256 244.663 305.522 244.663 305.522C244.663 305.522 256.517 308.378 292.598 307.768C328.679 307.157 348.494 302.256 353.799 300.656C353.799 300.656 355.037 293.106 355.391 288.614C355.63 286.032 355.263 283.424 354.328 281.063C354.328 281.063 353.974 272.897 353.09 270.04C352.207 267.183 349.536 262.893 349.536 262.893C349.536 262.893 346.886 255.745 342.464 251.259C338.042 246.773 330.79 242.245 329.023 241.226C327.256 240.206 324.95 239.596 321.591 236.941C318.232 234.286 297.359 217.549 290.816 213.057C284.272 208.565 270.117 206.325 267.287 205.714C264.457 205.104 231.915 202.443 220.595 202.443C209.275 202.443 185.953 203.035 173.015 208.772Z" stroke="#263238" stroke-width="0.5" stroke-linecap="round" stroke-linejoin="round"/>
<path d="M336.095 245.955C336.095 245.955 332.536 247.448 333.527 248.947C334.518 250.447 339.839 254.358 342.258 259.212C344.677 264.066 345.175 266.496 346.305 266.496C347.435 266.496 349.901 264.078 349.551 262.863C349.202 261.648 347.425 250.625 336.095 245.955Z" fill="#F7DE5E" stroke="#263238" stroke-width="0.5" stroke-linecap="round" stroke-linejoin="round"/>
<path d="M158.032 283.374C158 281.474 157.829 279.581 157.518 277.715L155.135 281.081C155.246 281.833 155.308 282.594 155.32 283.357C155.32 283.475 155.32 283.588 155.32 283.7L158.037 284.69C158.044 284.259 158.042 283.821 158.032 283.374Z" fill="#263238" stroke="#263238" stroke-width="0.5" stroke-linecap="round" stroke-linejoin="round"/>
<path d="M153.79 277.199C154.074 277.563 154.303 277.98 154.468 278.431L156.163 272.612C155.722 271.387 155.025 270.308 154.134 269.471L153.79 277.199Z" fill="#263238" stroke="#263238" stroke-width="0.5" stroke-linecap="round" stroke-linejoin="round"/>
<path d="M154.977 287.149C154.869 287.649 154.719 288.135 154.53 288.601L155.911 295.553C156.671 294.01 157.204 292.331 157.488 290.587L154.977 287.149Z" fill="#263238" stroke="#263238" stroke-width="0.5" stroke-linecap="round" stroke-linejoin="round"/>
<path d="M150.903 279.742L148.458 275.931C148.076 278.006 147.881 280.121 147.878 282.243L150.605 282.42C150.626 281.518 150.726 280.621 150.903 279.742Z" fill="#263238" stroke="#263238" stroke-width="0.5" stroke-linecap="round" stroke-linejoin="round"/>
<path d="M151.735 277.424C151.899 277.14 152.124 276.909 152.388 276.754L151.987 269.05C151.124 269.394 150.343 270.366 149.696 271.8L151.735 277.424Z" fill="#263238" stroke="#263238" stroke-width="0.5" stroke-linecap="round" stroke-linejoin="round"/>
<path d="M153.344 290.029C153.258 290.055 153.17 290.069 153.082 290.071C152.818 290.061 152.564 289.948 152.363 289.751L151.027 296.406C151.285 296.809 151.614 297.143 151.994 297.385C152.373 297.628 152.793 297.773 153.226 297.811C153.436 297.809 153.646 297.771 153.847 297.698L153.344 290.029Z" fill="#263238" stroke="#263238" stroke-width="0.5" stroke-linecap="round" stroke-linejoin="round"/>
<path d="M150.883 286.219L148.187 287.576C148.419 289.572 148.861 291.528 149.502 293.402L151.233 287.665C151.09 287.192 150.974 286.709 150.883 286.219Z" fill="#263238" stroke="#263238" stroke-width="0.5" stroke-linecap="round" stroke-linejoin="round"/>
<path d="M145.11 225.775C145.11 225.775 174.971 227.701 177.601 228.964C178.384 229.362 179.084 229.952 179.65 230.693C180.217 231.434 180.637 232.308 180.883 233.254L143.461 231.743L145.11 225.775Z" fill="white" stroke="#263238" stroke-width="0.5" stroke-linecap="round" stroke-linejoin="round"/>
<path d="M166.949 208.808C166.949 208.808 149.923 223.096 143.467 231.743L136.903 230.226L155.111 210.076L166.949 208.808Z" fill="white" stroke="#263238" stroke-width="0.5" stroke-linecap="round" stroke-linejoin="round"/>
<path d="M184.54 235.773C184.54 235.773 187.755 217.662 192.974 207.605C192.974 207.605 174.694 204.766 154.782 208.298C153.626 208.505 135.583 225.935 135.583 225.935C135.583 225.935 125.054 236.306 124.864 238.304C124.864 238.304 131.392 264.552 155.167 282.474L180.991 287.292C180.991 287.292 179.26 254.927 179.512 247.952C179.671 243.726 184.54 235.773 184.54 235.773ZM141.269 229.213C138.644 228.205 141.269 225.177 141.269 225.177L156.852 210.823C167.576 208.802 187.006 211.036 187.006 211.036C185.696 213.816 180.883 233.26 180.883 233.26C180.883 233.26 143.899 230.226 141.269 229.213Z" fill="white" stroke="#263238" stroke-width="0.5" stroke-linecap="round" stroke-linejoin="round"/>
<path d="M132.958 236.365L129.655 236.033C129.655 236.033 128.361 236.199 128.361 237.521C128.341 237.872 128.436 238.22 128.626 238.496C128.815 238.772 129.087 238.956 129.388 239.014L135.788 239.684C135.788 239.684 135.618 237.45 136.645 236.816L132.958 236.365Z" fill="#263238" stroke="#263238" stroke-width="0.5" stroke-linecap="round" stroke-linejoin="round"/>
<path d="M128.52 239.453C128.52 239.453 129.547 241.036 130.626 241.036C131.704 241.036 135.675 241.522 135.675 241.522" stroke="#263238" stroke-width="0.5" stroke-linecap="round" stroke-linejoin="round"/>
<path d="M337.26 211.866L338.534 211.753L343.911 230.593L342.386 230.819L337.26 211.866Z" fill="#263238" stroke="#263238" stroke-width="0.5" stroke-linecap="round" stroke-linejoin="round"/>
<path d="M328.509 210.935C328.509 210.935 330.409 209.75 330.841 209.75C331.272 209.75 332.828 212.121 332.828 212.121C332.828 212.121 330.671 213.519 330.409 213.62C330.147 213.721 328.684 212.921 328.684 212.921C327.824 213.695 327.092 214.64 326.521 215.712C325.828 217.206 322.978 222.693 322.978 222.693C322.978 222.693 321.437 225.289 319.778 224.187C318.119 223.085 317.533 220.501 318.237 219.404C318.941 218.308 328.509 210.935 328.509 210.935Z" fill="#FAD7B0" stroke="#263238" stroke-width="0.5" stroke-linecap="round" stroke-linejoin="round"/>
<path d="M327.04 213.703C327.31 214.075 327.666 214.352 328.067 214.503C328.727 214.575 329.391 214.609 330.054 214.604C330.054 214.604 331.698 214.402 330.399 213.608C329.649 213.144 328.869 212.748 328.067 212.423" fill="#FAD7B0"/>
<path d="M327.04 213.703C327.31 214.075 327.666 214.352 328.067 214.503C328.727 214.575 329.391 214.609 330.054 214.604C330.054 214.604 331.698 214.402 330.399 213.608C329.649 213.144 328.869 212.748 328.067 212.423" stroke="#263238" stroke-width="0.5" stroke-linecap="round" stroke-linejoin="round"/>
<path d="M90.4209 165.811L83.4615 171.625L77.139 165.977C75.5675 164.689 74.3095 162.956 73.4859 160.945C72.6624 158.934 72.301 156.712 72.4365 154.493C72.572 152.275 73.1998 150.133 74.2597 148.276C75.3195 146.418 76.7757 144.906 78.4883 143.885C80.2008 142.864 82.1122 142.368 84.0387 142.446C85.9651 142.523 87.8419 143.172 89.4885 144.328C91.1352 145.484 92.4964 147.11 93.4413 149.049C94.3863 150.987 94.8831 153.174 94.8841 155.398C94.9099 157.418 94.5186 159.416 93.7425 161.227C92.9663 163.037 91.8278 164.609 90.4209 165.811Z" fill="white" stroke="#263238" stroke-width="0.5" stroke-linecap="round" stroke-linejoin="round"/>
<path d="M73.77 155.315C73.77 157.571 74.3499 159.777 75.4363 161.653C76.5227 163.529 78.0668 164.992 79.8734 165.855C81.68 166.718 83.6679 166.944 85.5858 166.504C87.5037 166.064 89.2654 164.977 90.6481 163.382C92.0308 161.786 92.9724 159.754 93.3539 157.541C93.7354 155.328 93.5396 153.034 92.7913 150.949C92.043 148.865 90.7758 147.083 89.1499 145.829C87.524 144.576 85.6124 143.907 83.657 143.907C82.3578 143.903 81.071 144.196 79.8702 144.769C78.6694 145.341 77.5784 146.181 76.6598 147.241C75.7412 148.301 75.013 149.56 74.5171 150.945C74.0212 152.331 73.7673 153.816 73.77 155.315Z" fill="#B9E5FA" stroke="#263238" stroke-width="0.5" stroke-linejoin="round"/>
<path d="M83.6559 166.724C86.0003 166.728 88.2691 165.767 90.0555 164.015C89.9008 162.159 89.1608 160.433 87.9759 159.165C86.7911 157.897 85.2439 157.175 83.6281 157.136C82.0123 157.097 80.4404 157.744 79.2109 158.955C77.9814 160.165 77.1799 161.854 76.9585 163.701C78.7814 165.646 81.1732 166.726 83.6559 166.724Z" fill="#263238" stroke="#263238" stroke-width="0.5" stroke-linejoin="round"/>
<path d="M87.6559 153.461C88.3532 150.805 87.0521 147.999 84.75 147.195C82.4479 146.39 80.0164 147.892 79.3191 150.548C78.6219 153.204 79.9229 156.01 82.225 156.815C84.5272 157.619 86.9587 156.118 87.6559 153.461Z" fill="#263238" stroke="#263238" stroke-width="0.5" stroke-linejoin="round"/>
<path d="M210.985 202.164L204.041 207.99L197.719 202.342C196.145 201.055 194.884 199.322 194.059 197.311C193.234 195.299 192.871 193.076 193.005 190.856C193.14 188.636 193.768 186.493 194.828 184.633C195.889 182.774 197.346 181.261 199.06 180.24C200.774 179.219 202.687 178.724 204.614 178.803C206.542 178.882 208.42 179.532 210.066 180.691C211.713 181.849 213.074 183.478 214.017 185.419C214.961 187.36 215.455 189.549 215.453 191.775C215.477 193.792 215.083 195.786 214.306 197.592C213.529 199.399 212.391 200.966 210.985 202.164Z" fill="white" stroke="#263238" stroke-width="0.5" stroke-linecap="round" stroke-linejoin="round"/>
<path d="M194.354 191.674C194.354 193.931 194.934 196.136 196.02 198.013C197.107 199.889 198.651 201.351 200.457 202.214C202.264 203.078 204.252 203.304 206.17 202.864C208.088 202.423 209.849 201.337 211.232 199.741C212.615 198.146 213.556 196.113 213.938 193.9C214.319 191.687 214.124 189.393 213.375 187.309C212.627 185.224 211.36 183.442 209.734 182.189C208.108 180.935 206.196 180.266 204.241 180.266C202.942 180.264 201.655 180.557 200.455 181.13C199.255 181.702 198.164 182.542 197.245 183.602C196.327 184.662 195.599 185.921 195.102 187.306C194.606 188.691 194.352 190.176 194.354 191.674Z" fill="#B9E5FA" stroke="#263238" stroke-width="0.5" stroke-linejoin="round"/>
<path d="M204.241 203.082C206.584 203.086 208.851 202.126 210.636 200.374C210.476 198.523 209.734 196.803 208.55 195.54C207.366 194.277 205.823 193.558 204.211 193.519C202.599 193.481 201.03 194.125 199.802 195.33C198.573 196.535 197.77 198.218 197.544 200.06C199.366 202.006 201.758 203.085 204.241 203.082Z" fill="#263238" stroke="#263238" stroke-width="0.5" stroke-linejoin="round"/>
<path d="M208.302 189.502C208.857 186.801 207.409 184.093 205.068 183.453C202.728 182.813 200.381 184.483 199.826 187.184C199.271 189.885 200.719 192.593 203.06 193.233C205.4 193.873 207.747 192.202 208.302 189.502Z" fill="#263238" stroke="#263238" stroke-width="0.5" stroke-linejoin="round"/>
<path d="M85.8507 314.026C100.181 314.026 111.798 312.704 111.798 311.074C111.798 309.444 100.181 308.123 85.8507 308.123C71.5204 308.123 59.9033 309.444 59.9033 311.074C59.9033 312.704 71.5204 314.026 85.8507 314.026Z" fill="#757575"/>
<path d="M100.046 295.221L102.717 304.704C102.717 304.704 106.662 305.741 107.632 305.605C108.603 305.468 112.152 304.633 112.255 305.415C112.358 306.197 111.228 306.695 110.858 307.086C109.675 308.101 108.421 308.999 107.108 309.771C106.174 310.239 103.323 311.205 102.486 311.661C101.649 312.118 100.652 312.941 100.005 311.442C99.4538 310.052 99.0984 308.57 98.9524 307.051C98.8445 306.043 94.561 298.019 94.561 298.019L100.046 295.221Z" fill="#FAD7B0" stroke="#263238" stroke-width="0.5" stroke-linecap="round" stroke-linejoin="round"/>
<path d="M107.632 305.622C107.406 305.643 107.179 305.633 106.955 305.592L107.18 306.938C107.18 306.938 102.044 309.107 99.4404 309.854C99.5821 310.406 99.7642 310.943 99.9849 311.46C100.632 312.959 101.628 312.141 102.466 311.679C103.303 311.217 106.153 310.257 107.088 309.788C108.401 309.016 109.655 308.118 110.837 307.104C111.192 306.713 112.317 306.215 112.234 305.432C112.152 304.65 108.603 305.486 107.632 305.622Z" fill="#042E54" stroke="#263238" stroke-width="0.5" stroke-linecap="round" stroke-linejoin="round"/>
<path d="M117.222 203.101C117.222 203.101 118.819 202.715 118.655 203.142C118.49 203.569 117.355 203.871 117.355 203.871C117.355 203.871 118.588 203.907 118.357 204.215C118.094 204.437 117.783 204.571 117.458 204.6L116.944 205.193C116.944 205.193 116.431 205.726 116.313 205.88C116.194 206.034 115.116 206.994 114.88 206.473C114.793 206.176 114.769 205.86 114.81 205.55C114.851 205.241 114.956 204.948 115.116 204.695C115.326 204.523 117.222 203.101 117.222 203.101Z" fill="#FAD7B0" stroke="#263238" stroke-width="0.5" stroke-linecap="round" stroke-linejoin="round"/>
<path d="M88.3928 209.116L96.9597 214.503L111.993 208.274C111.993 208.274 112.645 207.136 113.611 205.311C114.576 203.486 116.271 202.662 117.011 202.14C117.751 201.619 118.387 201.856 118.172 202.383C117.956 202.911 116.585 203.397 116.302 203.764C116.02 204.132 114.602 206.36 114.602 206.36C114.602 206.36 117.144 204.902 117.566 204.866C117.987 204.831 118.238 205.192 117.638 205.637C116.988 206.057 116.372 206.545 115.799 207.095C115.482 207.59 115.115 208.04 114.705 208.434C114.375 208.687 114.032 208.916 113.678 209.122C113.678 209.122 99.122 220.382 98.3311 220.826C97.5465 221.138 96.7213 221.293 95.8914 221.283L88.0127 217.555L88.3928 209.116Z" fill="#FAD7B0" stroke="#263238" stroke-width="0.5" stroke-linecap="round" stroke-linejoin="round"/>
<path d="M98.9774 213.703L96.9589 214.521L88.392 209.134L88.0376 217.591L95.9163 221.319C96.7462 221.329 97.5714 221.174 98.356 220.862C98.5409 220.756 99.5578 220.05 101.011 219.025L98.9774 213.703Z" fill="#F7DE5E" stroke="#263238" stroke-width="0.5" stroke-linecap="round" stroke-linejoin="round"/>
<path d="M65.547 293.023L63.0149 299.962C63.0149 299.962 59.3888 304.004 59.4196 304.585C59.5171 305.122 59.7127 305.629 59.9935 306.071C60.2743 306.514 60.6337 306.882 61.0478 307.151C62.075 307.744 63.6672 308.757 63.6672 308.757C63.6672 308.757 66.1273 310.618 67.6733 311.033C69.2193 311.448 70.8474 312.171 71.0991 311.223C71.3507 310.274 68.4078 308.325 68.4078 308.325C68.4078 308.325 67.0775 305.361 66.8258 304.484C66.6776 303.54 66.6413 302.577 66.718 301.622L71.3404 295.624L65.547 293.023Z" fill="#FAD7B0" stroke="#263238" stroke-width="0.5" stroke-linecap="round" stroke-linejoin="round"/>
<path d="M68.424 308.325C67.8541 308.301 67.2887 308.199 66.7394 308.023C66.0357 307.756 64.4179 306.043 62.8565 303.916C62.3569 303.24 61.8199 302.603 61.2489 302.007C60.3347 303.104 59.4153 304.289 59.4359 304.585C59.5333 305.122 59.729 305.629 60.0097 306.071C60.2905 306.514 60.65 306.882 61.064 307.151C62.0912 307.744 63.6834 308.758 63.6834 308.758C63.6834 308.758 66.1436 310.618 67.6895 311.033C69.2355 311.448 70.8636 312.171 71.1153 311.223C71.367 310.275 68.424 308.325 68.424 308.325Z" fill="#042E54" stroke="#263238" stroke-width="0.5" stroke-linecap="round" stroke-linejoin="round"/>
<path d="M73.2406 249.611L73.2098 271.012L63.6772 292.566L72.2802 298.487L82.5883 275.8L85.0947 259.87L73.2406 249.611Z" fill="#042E54" stroke="#263238" stroke-width="0.5" stroke-linecap="round" stroke-linejoin="round"/>
<path d="M72.6455 238.001C72.6455 238.001 70.4729 246.204 70.8684 248.029C71.2639 249.854 83.195 277.531 83.195 277.531L92.7994 300.229L103.467 296.585L94.3762 266.952L87.6634 248.717V238.902L72.6455 238.001Z" fill="#013B71" stroke="#263238" stroke-width="0.5" stroke-linecap="round" stroke-linejoin="round"/>
<path d="M87.5808 198.152L86.6204 201.068L84.1294 199.569L84.4273 196.439L87.5808 198.152Z" fill="#FAD7B0" stroke="#263238" stroke-width="0.5" stroke-linecap="round" stroke-linejoin="round"/>
<path d="M88.1671 201.809C88.1671 201.809 86.6725 202.324 86.8317 204.001C86.9909 205.679 89.2919 212.127 89.8568 215.558C90.4218 218.989 89.9441 219.772 90.0469 221.277C90.1496 222.782 89.5333 236.804 89.7233 239.252C89.9133 241.7 89.071 241.877 83.5035 241.735C77.936 241.593 74.7722 240.734 73.0259 239.578C71.2797 238.422 72.086 236.662 72.7075 235.246C73.329 233.829 75.8867 215.297 77.2221 210.609C78.5575 205.922 78.7989 204.179 80.9817 202.49C83.1645 200.801 83.4573 201.121 83.6062 200.398C83.7552 199.675 84.1198 198.591 84.1198 198.591L88.1671 201.809Z" fill="#F7DE5E" stroke="#263238" stroke-width="0.5" stroke-linecap="round" stroke-linejoin="round"/>
<path d="M83.2871 219.831C84.2399 220.964 85.485 221.71 86.8361 221.958" stroke="#263238" stroke-width="0.5" stroke-linecap="round" stroke-linejoin="round"/>
<path d="M82.5068 226.184C82.7 226.478 82.9075 226.759 83.1283 227.025" stroke="#263238" stroke-width="0.5" stroke-linecap="round" stroke-linejoin="round"/>
<path d="M80.0254 220.139C80.4632 221.909 81.0986 223.606 81.9155 225.188" stroke="#263238" stroke-width="0.5" stroke-linecap="round" stroke-linejoin="round"/>
<path d="M92.83 185.013C93.26 186.22 93.3162 187.562 92.9892 188.812C92.4139 190.768 92.265 191.716 92.717 192.486C93.1689 193.257 93.3641 194.211 92.6297 194.679C92.2688 194.937 91.8643 195.103 91.4432 195.165C91.4432 195.165 90.1438 198.839 89.2809 199.201C88.4181 199.562 85.6138 198.318 84.715 197.636C83.8162 196.955 84.5506 189.695 85.1721 188.456C85.7935 187.218 92.83 185.013 92.83 185.013Z" fill="#FAD7B0" stroke="#263238" stroke-width="0.5" stroke-linecap="round" stroke-linejoin="round"/>
<path d="M90.3234 195.165C89.363 195.218 88.9572 193.979 88.9572 193.979C88.9572 193.979 88.346 196.036 89.0907 196.32C89.8355 196.605 90.3234 195.165 90.3234 195.165Z" stroke="#263238" stroke-width="0.5" stroke-linecap="round" stroke-linejoin="round"/>
<path d="M91.8395 191.058C91.7522 191.556 91.4954 191.917 91.2694 191.864C91.0434 191.811 90.9356 191.366 91.0229 190.862C91.1102 190.359 91.367 189.997 91.593 190.05C91.819 190.104 91.9268 190.554 91.8395 191.058Z" fill="#263238"/>
<path d="M95.0691 181.486C95.0691 181.486 95.1102 184.183 93.369 185.57C91.6279 186.956 87.1595 188.462 86.4816 188.924C86.284 189.06 86.1192 189.251 86.0026 189.48C85.8859 189.709 85.821 189.968 85.8139 190.234C85.5019 192.477 85.291 194.739 85.1821 197.008C85.1821 199.052 86.8 200.723 86.2094 202.217C85.6187 203.71 83.7543 203.805 82.5576 203.835C81.3609 203.864 81.705 205.844 79.5992 207.1C77.4934 208.357 75.8088 207.758 74.684 205.862C73.5592 203.965 74.1036 203.005 73.1432 202.602C72.1827 202.199 70.5752 203.088 69.4555 199.941C68.3358 196.794 69.3476 194.43 70.1745 193.807C71.0015 193.185 74.1088 193.387 73.9496 189.469C73.7903 185.552 76.6563 179.329 80.9192 176.804C85.1821 174.28 92.0439 179.098 92.9684 179.584C93.8929 180.07 95.0948 180.514 95.0691 181.486Z" fill="#263238" stroke="#263238" stroke-width="0.5" stroke-linecap="round" stroke-linejoin="round"/>
<path d="M90.9756 233.716C90.9756 233.716 88.5719 212.879 86.6202 207.871C84.6685 202.863 82.6295 200.457 79.5427 204.831C76.4559 209.205 75.0127 234.789 75.0127 234.789" stroke="#263238" stroke-width="0.5" stroke-linecap="round" stroke-linejoin="round"/>
<path d="M84.6078 210.983C84.6078 210.983 77.4635 230.214 76.3901 231.447C75.3166 232.68 71.254 235.275 70.2268 232.229C69.1996 229.183 77.8179 206.692 79.7285 204.422C81.6391 202.152 85.296 203.071 85.3782 207.101" fill="#F7DE5E"/>
<path d="M84.6078 210.983C84.6078 210.983 77.4635 230.214 76.3901 231.447C75.3166 232.68 71.254 235.275 70.2268 232.229C69.1996 229.183 77.8179 206.692 79.7285 204.422C81.6391 202.152 85.296 203.071 85.3782 207.101" stroke="#263238" stroke-width="0.5" stroke-linecap="round" stroke-linejoin="round"/>
<path d="M85.2179 229.538C86.0645 229.321 86.8546 228.876 87.524 228.24C87.8723 227.829 88.2952 227.512 88.7624 227.312C89.2295 227.113 89.7293 227.035 90.2256 227.085C91.1039 227.197 92.3211 227.162 92.3828 228.199C92.4098 228.554 92.3476 228.91 92.2037 229.225C92.0598 229.541 91.8402 229.802 91.5713 229.977C91.3145 230.131 91.0576 233.645 90.3694 234.125C89.6812 234.605 87.0053 233.793 86.05 233.58C85.0947 233.367 79.0906 234.445 76.0398 234.078C72.9889 233.71 70.2617 233.538 70.2257 232.229C70.1898 230.919 71.6536 227.369 75.0639 227.233C78.4743 227.096 81.3402 229.514 85.2179 229.538Z" fill="#FAD7B0" stroke="#263238" stroke-width="0.5" stroke-linecap="round" stroke-linejoin="round"/>
<path d="M90.9753 233.716C90.9753 233.716 89.5012 234.742 82.6086 234.902C75.716 235.062 75.0124 234.789 75.0124 234.789C75.0124 234.789 72.9579 244.988 73.7027 246.109C75.0483 248.141 88.9209 247.738 90.2768 246.233C91.6327 244.728 90.9753 233.716 90.9753 233.716Z" fill="#F44336" stroke="#263238" stroke-width="0.5" stroke-linecap="round" stroke-linejoin="round"/>
<path d="M90.8677 189.404C91.0136 189.161 91.2302 188.987 91.4782 188.913C91.7261 188.839 91.9888 188.87 92.2185 189.001" stroke="#263238" stroke-width="0.5" stroke-linecap="round" stroke-linejoin="round"/>
</g>
<defs>
<clipPath id="clip0_1054_3593">
<rect width="428" height="926" fill="white"/>
</clipPath>
<clipPath id="clip1_1054_3593">
<rect width="428" height="44" fill="white"/>
</clipPath>
</defs>
</svg>
