<svg width="19" height="18" viewBox="0 0 19 18" fill="none" xmlns="http://www.w3.org/2000/svg">
<path id="Vector" d="M17.2512 1.58585C16.031 0.416205 14.1252 -0.165649 12.3856 0.105982C11.1328 0.297459 10.119 0.929779 9.51042 1.88271C8.91669 0.913452 7.93407 0.27371 6.7006 0.0688736C4.97731 -0.214632 2.9898 0.39394 1.74743 1.58436C1.19867 2.11009 0.76123 2.74078 0.461105 3.43895C0.160979 4.13711 0.0042999 4.8885 0.000381385 5.64843C-0.00859738 6.43672 0.141045 7.21876 0.440408 7.94804C0.739772 8.67733 1.18274 9.33896 1.74297 9.89359L8.75787 16.9129C8.85446 17.0103 8.96938 17.0876 9.096 17.1404C9.22261 17.1931 9.35842 17.2203 9.49558 17.2203C9.63274 17.2203 9.76855 17.1931 9.89516 17.1404C10.0218 17.0876 10.1367 17.0103 10.2333 16.9129L17.2526 9.89211C17.8135 9.33802 18.2572 8.6768 18.5573 7.94777C18.8574 7.21874 19.0079 6.43679 18.9997 5.64843C18.9954 4.88865 18.8384 4.13748 18.538 3.43957C18.2376 2.74167 17.8 2.11127 17.2512 1.58585ZM16.6248 9.26275L9.60839 16.2836C9.5945 16.2984 9.57772 16.3102 9.55908 16.3183C9.54045 16.3264 9.52035 16.3306 9.50003 16.3306C9.47972 16.3306 9.45962 16.3264 9.44098 16.3183C9.42234 16.3102 9.40556 16.2984 9.39168 16.2836L2.37529 9.26275C1.89884 8.79197 1.52191 8.23019 1.26692 7.61082C1.01192 6.99144 0.884076 6.32712 0.890974 5.65734C0.894353 5.01586 1.02671 4.3816 1.28018 3.79231C1.53364 3.20302 1.90304 2.67072 2.36639 2.22708C3.24065 1.38547 4.56021 0.891187 5.82337 0.891187C6.069 0.890975 6.31423 0.910832 6.55662 0.95056C7.29878 1.07227 8.28883 1.44335 8.84545 2.518C8.90804 2.63805 9.00191 2.73894 9.11714 2.81001C9.23237 2.88108 9.36467 2.91968 9.50003 2.92174C9.63199 2.92206 9.76157 2.88663 9.875 2.8192C9.98843 2.75176 10.0815 2.65486 10.1442 2.53878C10.7216 1.47007 11.7503 1.10493 12.5102 0.986184C13.9604 0.760567 15.6125 1.2593 16.6218 2.22856C17.0871 2.67102 17.4586 3.20263 17.7141 3.7917C17.9697 4.38077 18.104 5.01526 18.1091 5.65734C18.116 6.32712 17.9881 6.99144 17.7332 7.61082C17.4782 8.23019 17.1012 8.79197 16.6248 9.26275Z" fill="black"/>
</svg>
