<svg width="41" height="41" viewBox="0 0 41 41" fill="none" xmlns="http://www.w3.org/2000/svg">
<g id="Layer 3">
<g id="Layer 1">
<g id="Layer 2">
<g id="Layer 1-2">
<path id="Vector" d="M33.4845 7.48764L30.1776 11.4389C32.4149 13.9311 33.6399 17.1696 33.6121 20.5186C33.5843 23.8676 32.3056 27.0853 30.0271 29.54C28.8963 24.9623 27.7834 20.362 26.6183 15.6655L22.0378 21.1382C21.5273 19.9283 21.0393 18.7363 20.5336 17.5669L27.538 9.18848L27.7164 8.96278L30.8251 5.26005C26.9342 2.57964 22.1606 1.50043 17.495 2.24642C12.8295 2.99241 8.63039 5.50629 5.76927 9.2663C2.90814 13.0263 1.60475 17.7436 2.12961 22.4392C2.65448 27.1347 4.9673 31.4479 8.58802 34.4833C12.2087 37.5188 16.8593 39.0435 21.5744 38.7409C26.2895 38.4383 30.707 36.3317 33.91 32.8584C37.1131 29.385 38.8556 24.8116 38.776 20.0875C38.6964 15.3634 36.8007 10.8513 33.4825 7.48787L33.4845 7.48764ZM6.87821 21.9535C6.67166 20.2015 6.81313 18.426 7.2945 16.7289C7.77586 15.0317 8.58764 13.4464 9.68325 12.0637C10.7789 10.6811 12.1367 9.52848 13.6789 8.67196C15.2211 7.81544 16.9173 7.2719 18.6701 7.07255C19.8862 6.92619 21.117 6.95425 22.3252 7.1559L7.63375 25.0781C7.25425 24.0716 7.00048 23.0221 6.87821 21.9535ZM21.7547 33.7254C19.6849 33.967 17.5872 33.7239 15.6275 33.0154C13.6677 32.3069 11.8996 31.1524 10.4628 29.643L16.6218 22.2628L19.2583 26.2338C20.0018 27.3345 20.725 28.4375 21.5386 29.6118L25.0598 25.4101L28.7177 30.7564C26.7269 32.389 24.3111 33.4191 21.7547 33.7254Z" fill="#1D1D1D"/>
</g>
</g>
</g>
</g>
</svg>
