<svg width="337" height="263" viewBox="0 0 337 263" fill="none" xmlns="http://www.w3.org/2000/svg">
<path d="M291.939 165.058H278.149V121.792H262.978V147.105H255.626V85.4307H248.275V102.463H241.38V75.309H229.89V138.361H224.833V151.706H218.857V104.303H206.905V141.585H202.311V61.0435H181.626V157.233H142.562V94.1813H135.205V70.2451H121.415V44.9316H95.2165V92.3349H84.6458V142.962H65.8048V101.195H47.469V148.026H33.6303V120.415H17.54V166.435" stroke="#263238" stroke-width="0.5" stroke-linecap="round" stroke-linejoin="round"/>
<path d="M250.082 44.0097C249.022 43.6556 247.875 43.6556 246.815 44.0097C242.423 45.6084 244.02 48.4025 241.225 49.6028C238.429 50.803 232.048 44.4032 229.655 46.4102C227.263 48.4172 226.462 51.6049 224.866 52.4067C223.269 53.2085 220.076 50.4046 218.479 52.4067L216.883 54.4039H264.043" fill="#B9E5FA"/>
<path d="M266.755 54.394H295.1C295.1 54.394 296.294 49.9962 293.106 47.9991C289.918 46.0019 289.112 48.3975 285.521 47.6006C285.521 47.6006 275.946 32.8136 268.361 33.6155C260.776 34.4173 261.179 40.0104 258.384 44.4032C256.841 46.8332 254.808 45.9625 252.553 44.9689" fill="#B9E5FA"/>
<path d="M287.997 65.2259C287.416 65.0341 286.79 65.0341 286.209 65.2259C283.797 66.1064 284.676 67.6412 283.143 68.2954C281.611 68.9497 278.108 65.4472 276.791 66.5442C275.475 67.6412 275.043 69.3924 274.168 69.8302C273.294 70.268 271.54 68.7332 270.665 69.8302L269.786 70.9272H295.651" fill="#B9E5FA"/>
<path d="M297.125 70.9226H312.698C312.698 70.9226 313.351 68.5122 311.603 67.4152C309.854 66.3183 309.412 67.6366 307.442 67.1939C307.442 67.1939 302.19 59.0871 298.029 59.5249C293.868 59.9627 294.099 63.0323 292.557 65.4279C291.707 66.761 290.591 66.2838 289.354 65.7378" fill="#B9E5FA"/>
<path d="M151.089 38.8508C150.507 38.6565 149.878 38.6565 149.296 38.8508C146.889 39.7264 147.763 41.2612 146.23 41.9203C144.698 42.5795 141.195 39.0672 139.883 40.1642C138.572 41.2612 138.129 43.0173 137.255 43.4551C136.381 43.8929 134.627 42.3581 133.752 43.4551L132.878 44.5521H158.738" fill="#B9E5FA"/>
<path d="M160.236 44.5467H175.784C175.784 44.5467 176.442 42.1314 174.693 41.0393C172.944 39.9472 172.502 41.2557 170.532 40.8179C170.532 40.8179 165.276 32.7063 161.12 33.1441C156.964 33.5819 157.19 36.6514 155.647 39.047C154.797 40.3851 153.682 39.9079 152.444 39.3619" fill="#B9E5FA"/>
<path d="M78.6692 134.078C78.6692 164.301 61.1366 188.797 39.5084 188.797C17.8802 188.797 0.347656 164.301 0.347656 134.078C0.347656 103.854 17.8802 0 39.5084 0C61.1366 0 78.6692 103.861 78.6692 134.078Z" fill="#9DDF93"/>
<path d="M61.4652 149.888L49.6104 154.362L51.9899 147.084L46.3181 155.603L40.6585 157.737L40.2569 133.837L60.8566 105.934L49.8174 117.189L51.6856 109.365L46.4033 120.67L40.1413 127.055L39.5084 89.7148L37.2628 144.174L17.7402 123.078L28.4691 137.944L18.3549 136.796L30.8425 141.239L37.0315 149.814L35.9483 176.072L28.7491 171.09L35.7292 181.507L32.4187 261.753H42.4173L40.7255 161.553L61.4652 149.888Z" fill="#535353"/>
<path d="M61.0521 89.832C61.0521 89.832 61.4172 93.499 59.4516 96.1919C57.4859 98.8847 53.932 99.5858 53.932 99.5858C53.932 99.5858 53.5729 95.9189 55.5386 93.226C57.5042 90.5332 61.0521 89.832 61.0521 89.832Z" fill="white"/>
<path d="M72.8569 106.721C72.8569 106.721 73.2159 110.394 71.2503 113.087C69.2847 115.78 65.7368 116.475 65.7368 116.475C65.7368 116.475 65.3716 112.808 67.3373 110.115C69.3029 107.422 72.8569 106.721 72.8569 106.721Z" fill="white"/>
<path d="M72.8514 139.663C72.8514 139.663 71.9811 143.243 69.2426 145.104C66.5041 146.966 62.9258 146.432 62.9258 146.432C62.9258 146.432 63.796 142.852 66.5345 140.99C69.273 139.129 72.8514 139.663 72.8514 139.663Z" fill="white"/>
<path d="M8.02734 139.663C8.02734 139.663 8.89758 143.243 11.6422 145.104C14.3868 146.966 17.9529 146.432 17.9529 146.432C17.9529 146.432 17.0827 142.852 14.3442 140.99C11.6057 139.129 8.02734 139.663 8.02734 139.663Z" fill="white"/>
<path d="M59.2191 126C59.2191 126 59.5782 129.667 57.6125 132.36C55.6469 135.053 52.0746 135.748 52.0746 135.748C52.0746 135.748 51.7095 132.081 53.6752 129.388C55.6408 126.695 59.2191 126 59.2191 126Z" fill="white"/>
<path d="M56.1578 71.4414C56.1578 71.4414 56.5229 75.1084 54.5573 77.8012C52.5916 80.4941 49.0316 81.1952 49.0316 81.1952C49.0316 81.1952 48.6725 77.522 50.6382 74.8292C52.6038 72.1363 56.1578 71.4414 56.1578 71.4414Z" fill="white"/>
<path d="M49.1294 85.4707C49.1294 85.4707 49.4884 89.1377 47.5228 91.8305C45.5571 94.5234 42.0092 95.2245 42.0092 95.2245C42.0092 95.2245 41.6441 91.5513 43.6097 88.8585C45.5754 86.1656 49.1294 85.4707 49.1294 85.4707Z" fill="white"/>
<path d="M65.8216 75.2578C65.8216 75.2578 66.1867 78.9248 64.2211 81.6176C62.2555 84.3105 58.7015 85.0054 58.7015 85.0054C58.7015 85.0054 58.3363 81.3384 60.3081 78.6456C62.2798 75.9527 65.8216 75.2578 65.8216 75.2578Z" fill="white"/>
<path d="M11.5697 75.2578C11.5697 75.2578 11.2106 78.9248 13.1762 81.6176C15.1419 84.3105 18.6959 85.0054 18.6959 85.0054C18.6959 85.0054 19.0549 81.3384 17.0893 78.6456C15.1236 75.9527 11.5697 75.2578 11.5697 75.2578Z" fill="white"/>
<path d="M57.692 54.291C57.692 54.291 58.051 57.9642 56.0854 60.6571C54.1197 63.3499 50.5657 64.0448 50.5657 64.0448C50.5657 64.0448 50.2067 60.3778 52.1723 57.7036C54.138 55.0294 57.692 54.291 57.692 54.291Z" fill="white"/>
<path d="M54.2343 36.0801C54.2343 36.0801 55.488 39.5361 54.2343 42.6447C52.9807 45.7532 49.731 47.3416 49.731 47.3416C49.731 47.3416 48.4774 43.8856 49.731 40.777C50.9846 37.6685 54.2343 36.0801 54.2343 36.0801Z" fill="white"/>
<path d="M29.4671 31.3223C29.4671 31.3223 32.6742 33.0286 33.794 36.1868C34.9137 39.345 33.5323 42.7513 33.5323 42.7513C33.5323 42.7513 30.3313 41.0388 29.2115 37.8869C28.0918 34.7349 29.4671 31.3223 29.4671 31.3223Z" fill="white"/>
<path d="M41.0166 53.0996C41.0166 53.0996 43.2987 55.96 43.11 59.3043C42.9214 62.6487 40.3289 65.2298 40.3289 65.2298C40.3289 65.2298 38.0529 62.3694 38.2416 59.0251C38.4302 55.6808 41.0166 53.0996 41.0166 53.0996Z" fill="white"/>
<path d="M40.4094 20.6797C40.4094 20.6797 42.6854 23.5401 42.4967 26.8844C42.3081 30.2287 39.7217 32.8099 39.7217 32.8099C39.7217 32.8099 37.4396 29.9495 37.6283 26.6052C37.8169 23.2608 40.4094 20.6797 40.4094 20.6797Z" fill="white"/>
<path d="M14.4897 89.832C14.4897 89.832 14.1245 93.499 16.0902 96.1919C18.0558 98.8847 21.6098 99.5858 21.6098 99.5858C21.6098 99.5858 21.9689 95.9189 20.0032 93.226C18.0376 90.5332 14.4897 89.832 14.4897 89.832Z" fill="white"/>
<path d="M7.7591 109.785C7.7591 109.785 7.40005 113.452 9.3657 116.145C11.3313 118.838 14.8792 119.539 14.8792 119.539C14.8792 119.539 15.2444 115.866 13.2787 113.173C11.3131 110.48 7.7591 109.785 7.7591 109.785Z" fill="white"/>
<path d="M25.6146 117.027C25.6146 117.027 25.2555 120.701 27.2212 123.393C29.1868 126.086 32.7408 126.781 32.7408 126.781C32.7408 126.781 33.0998 123.114 31.1342 120.421C29.1686 117.728 25.6146 117.027 25.6146 117.027Z" fill="white"/>
<path d="M30.5018 89.3848C30.5018 89.3848 29.1204 92.7912 30.2523 95.9432C31.3842 99.0951 34.5852 100.808 34.5852 100.808C34.5852 100.808 35.9606 97.3951 34.8347 94.2431C33.7089 91.0911 30.5018 89.3848 30.5018 89.3848Z" fill="white"/>
<path d="M17.8564 162.947C17.8564 162.947 21.4713 163.016 23.942 160.794C26.4128 158.573 26.8023 154.912 26.8023 154.912C26.8023 154.912 23.1874 154.844 20.7167 157.065C18.2459 159.287 17.8564 162.947 17.8564 162.947Z" fill="white"/>
<path d="M52.5498 158.916C52.5498 158.916 53.5296 162.465 56.329 164.234C59.1283 166.002 62.6823 165.326 62.6823 165.326C62.6823 165.326 61.6964 161.783 58.9032 160.008C56.1099 158.234 52.5498 158.916 52.5498 158.916Z" fill="white"/>
<path d="M21.8901 71.4414C21.8901 71.4414 21.5249 75.1084 23.4906 77.8012C25.4562 80.4941 29.0102 81.1952 29.0102 81.1952C29.0102 81.1952 29.3693 77.522 27.4036 74.8292C25.438 72.1363 21.8901 71.4414 21.8901 71.4414Z" fill="white"/>
<path d="M21.8236 55.2227C21.8236 55.2227 21.4645 58.8896 23.4302 61.5825C25.3958 64.2753 28.9498 64.9827 28.9498 64.9827C28.9498 64.9827 29.3088 61.3157 27.3432 58.6228C25.3775 55.93 21.8236 55.2227 21.8236 55.2227Z" fill="white"/>
<path d="M35.8062 243.419H68.4745C68.4745 243.419 67.1037 227.243 57.9454 220.365C48.7871 213.487 37.575 215.553 34.8284 220.139C32.0819 224.724 31.6201 234.578 32.3079 235.725C32.9958 236.871 35.8062 243.419 35.8062 243.419Z" fill="#263238" stroke="#263238" stroke-width="0.5" stroke-linecap="round" stroke-linejoin="round"/>
<path d="M135.088 249.02H160.726L176.291 240.538C176.291 240.538 172.174 222.659 161.871 217.414C151.567 212.17 143.028 213.907 138.375 222.875C133.722 231.844 135.088 249.02 135.088 249.02Z" fill="#263238" stroke="#263238" stroke-width="0.5" stroke-linecap="round" stroke-linejoin="round"/>
<path d="M112.517 232.34H106.621C100.465 232.66 95.5518 239.095 95.5518 246.991C95.5518 254.888 100.465 261.323 106.621 261.643H109.142H112.517C118.227 261.643 122.86 255.075 122.86 246.976C122.86 238.878 118.217 232.34 112.517 232.34Z" fill="#263238" stroke="#263238" stroke-width="0.5" stroke-linecap="round" stroke-linejoin="round"/>
<path d="M214.015 225.168H206.695C199.035 225.566 192.938 233.576 192.938 243.406C192.938 253.236 199.055 261.245 206.695 261.639H214.015C221.125 261.639 226.893 253.467 226.893 243.386C226.893 233.305 221.125 225.168 214.015 225.168Z" fill="#263238" stroke="#263238" stroke-width="0.5" stroke-linecap="round" stroke-linejoin="round"/>
<path d="M162.726 225.168H153.435V228.696C150.241 232.016 148.168 237.374 148.168 243.421C148.168 249.467 150.241 254.825 153.435 258.146V261.673H162.726C169.84 261.673 175.604 253.501 175.604 243.421C175.604 233.34 169.84 225.168 162.726 225.168Z" fill="#263238" stroke="#263238" stroke-width="0.5" stroke-linecap="round" stroke-linejoin="round"/>
<path d="M55.1888 225.168H47.9909V228.696C44.9692 232.016 43.0039 237.374 43.0039 243.421C43.0039 249.467 44.9692 254.825 47.9909 258.146V261.673H55.1888C61.9151 261.673 67.3688 253.501 67.3688 243.421C67.3688 233.34 61.9102 225.168 55.1888 225.168Z" fill="#263238" stroke="#263238" stroke-width="0.5" stroke-linecap="round" stroke-linejoin="round"/>
<path d="M235.035 240.148L234.504 234.131L235.211 231.12L235.388 227.229L231.856 221.399C231.856 221.399 231.679 213.788 231.325 212.907C230.971 212.026 226.014 208.115 221.101 206.526C216.187 204.937 185.907 201.227 185.907 201.227C185.907 201.227 168.941 187.599 163.109 184.766C157.277 181.932 155.331 181.582 149.146 179.811C142.96 178.04 130.234 178.04 130.234 178.04L112.026 176.972C112.026 176.972 89.7589 176.087 77.5642 177.327C65.3694 178.566 59.1885 180.51 58.4712 180.864L56.3535 181.927C56.3535 181.927 48.5758 183.698 47.5096 184.756C46.4435 185.813 45.392 187.412 47.8634 190.064L34.1062 205.109C34.1062 205.109 31.6496 205.286 31.8068 206.88C31.964 208.474 31.9837 220.503 31.9837 220.503L30.5687 222.471C30.5687 222.471 29.4828 231.829 30.0282 233.423C30.9487 235.782 32.012 238.082 33.212 240.311C33.8223 241.217 34.6014 241.997 35.5065 242.608L35.7767 242.756C34.9955 240.212 33.4626 235.037 33.4626 233.384C33.4626 231.17 34.5681 224.238 39.5501 222.019C44.5322 219.8 50.3593 219.943 55.0515 223.682C59.7437 227.421 61.4388 235.047 62.9422 239.76C64.4457 244.473 66.2636 247.661 68.3468 249.044C68.7989 249.349 69.2263 249.634 69.6194 249.89C70.7298 249.89 71.3882 249.865 71.3882 249.865L140.135 251.459V248.458C140.135 248.458 137.31 247.395 136.779 246.864C136.248 246.333 134.322 239.253 136.071 232.705C137.821 226.156 143.319 219.608 150.389 219.077C157.459 218.545 165.585 222.796 168.416 229.699C171.246 236.601 172.302 247.041 172.656 247.75C173.009 248.458 173.894 248.984 175.835 249.516L177.8 250.047L181.333 251.641L227.817 249.181C227.817 249.181 234.882 246.175 235.767 244.581C236.651 242.987 235.035 240.148 235.035 240.148Z" fill="white" stroke="#263238" stroke-width="0.5" stroke-linecap="round" stroke-linejoin="round"/>
<path d="M185.907 201.227C185.907 201.227 168.941 187.599 163.109 184.766C157.277 181.932 155.332 181.582 149.146 179.811C142.96 178.04 130.235 178.04 130.235 178.04L112.026 176.972C112.026 176.972 89.7591 176.087 77.5644 177.327C65.3696 178.566 59.1887 180.51 58.4714 180.864L56.3538 181.927C56.3538 181.927 48.5761 183.698 47.5099 184.756C46.4437 185.813 45.3922 187.412 47.8636 190.064H56.7075L68.7254 200.509L132.878 202.807L133.055 200.863L183.952 200.686C184.643 200.666 185.324 200.854 185.907 201.227Z" fill="#263238" stroke="#263238" stroke-width="0.5" stroke-linecap="round" stroke-linejoin="round"/>
<path d="M185.907 201.228C185.907 201.228 168.941 187.6 163.109 184.766C161.144 183.816 159.631 183.147 158.24 182.606C155.386 182.07 152.502 181.76 152.502 181.76L115.392 178.926C119.34 181.76 123.062 184.896 126.525 188.308C131.09 192.879 136.219 199.383 137.649 200.854L183.961 200.696C184.648 200.675 185.326 200.86 185.907 201.228Z" fill="#C4C4C4" stroke="#263238" stroke-width="0.5" stroke-linecap="round" stroke-linejoin="round"/>
<path d="M70.126 200.557L87.1849 201.167C87.5681 198.216 88.3591 192.774 89.2337 189.886C90.1698 186.986 91.2924 184.15 92.5944 181.395L74.0369 182.457C74.0369 182.457 71.0693 193.237 70.126 200.557Z" fill="#8C8C8C" stroke="#263238" stroke-width="0.5" stroke-linecap="round" stroke-linejoin="round"/>
<path d="M68.7346 200.509C68.7346 200.509 71.4958 185.582 72.8814 182.9C72.8814 182.9 65.3149 183.456 63.3791 184.657C61.9297 185.557 58.736 188.873 57.208 190.497L68.7346 200.509Z" fill="#C4C4C4" stroke="#263238" stroke-width="0.5" stroke-linecap="round" stroke-linejoin="round"/>
<path d="M130.942 201.566C130.942 201.566 121.224 189.006 115.745 185.64C110.267 182.275 100.19 181.749 99.1287 181.572L98.0723 181.395C98.0723 181.395 93.2229 188.848 94.3481 201.423L131.551 202.761L130.942 201.566Z" fill="#C4C4C4" stroke="#263238" stroke-width="0.5" stroke-linecap="round" stroke-linejoin="round"/>
<path d="M122.633 201.566C122.633 201.566 124.755 199.106 124.048 196.966C123.34 194.826 121.753 194.669 120.692 194.506C119.631 194.344 114.152 193.798 112.03 195.038C109.907 196.277 109.205 200.169 110.266 200.877C111.327 201.586 116.978 201.232 116.978 201.232C116.978 201.232 119.277 205.123 120.161 205.3C121.046 205.478 122.81 205.3 123.163 204.415C123.517 203.529 122.633 201.566 122.633 201.566Z" stroke="#263238" stroke-width="0.5" stroke-linecap="round" stroke-linejoin="round"/>
<path d="M122.633 201.566C122.633 201.566 124.755 199.106 124.048 196.966C123.34 194.826 121.753 194.669 120.692 194.506C119.631 194.344 114.152 193.798 112.03 195.038C109.907 196.277 109.205 200.169 110.266 200.877C111.327 201.586 116.978 201.232 116.978 201.232C116.978 201.232 119.277 205.123 120.161 205.3C121.046 205.478 122.81 205.3 123.163 204.415C123.517 203.529 122.633 201.566 122.633 201.566Z" fill="#263238" stroke="#263238" stroke-width="0.5" stroke-linecap="round" stroke-linejoin="round"/>
<path d="M174.773 225.777C174.773 225.777 198.303 227.027 200.657 227.578C203.01 228.129 205.363 228.965 205.363 228.965L234.013 227.981" stroke="#263238" stroke-width="0.5" stroke-linecap="round" stroke-linejoin="round"/>
<path d="M132.701 204.99C132.701 204.99 130.067 219.681 130.736 235.06" stroke="#263238" stroke-width="0.5" stroke-linecap="round" stroke-linejoin="round"/>
<path d="M132.008 208.455L164.391 210.531C164.391 210.531 197.61 214.831 198.995 214.689C200.381 214.546 201.899 214.551 201.899 214.551" stroke="#263238" stroke-width="0.5" stroke-linecap="round" stroke-linejoin="round"/>
<path d="M230.435 213.167C226.711 212.794 222.971 212.608 219.228 212.611C212.256 212.611 204.188 213.231 203.447 213.305C202.066 213.443 201.511 214.968 201.511 216.075C201.511 217.182 201.511 221.62 201.923 222.471C202.336 223.322 206.08 226.49 208.153 226.49C210.227 226.49 227.531 226.628 229.192 225.506C230.853 224.385 231.88 221.393 231.88 221.393" stroke="#263238" stroke-width="0.5" stroke-linecap="round" stroke-linejoin="round"/>
<path d="M167.239 211.131C167.239 211.131 171.529 216.543 173.627 217.92C175.724 219.298 176.118 219.445 177.223 219.588C178.329 219.731 190.376 220.572 192.037 220.572C193.697 220.572 194.803 220.434 195.476 219.741C196.149 219.047 197.81 214.594 197.81 214.594L167.239 211.131Z" fill="#F7DE5E" stroke="#263238" stroke-width="0.5" stroke-linecap="round" stroke-linejoin="round"/>
<path d="M180.32 233.699C180.32 233.699 178.797 237.994 178.797 238.688C178.797 239.382 180.32 240.351 180.875 240.351C181.43 240.351 191.807 240.489 192.5 240.213C193.193 239.938 196.922 235.913 196.789 235.362C196.657 234.811 194.573 233.837 194.573 233.837L180.32 233.699Z" fill="#263238" stroke="#263238" stroke-width="0.5" stroke-linecap="round" stroke-linejoin="round"/>
<path d="M235.742 244.571C236.626 242.977 235.034 240.143 235.034 240.143L232.892 235.892L203.963 236.586C203.963 236.586 199.541 242.406 198.843 242.686C198.261 242.869 197.655 242.962 197.045 242.962C197.045 242.962 179.878 242.268 178.635 241.712C177.392 241.156 176.419 239.498 175.869 239.08C175.319 238.662 173.235 238.096 173.235 238.096C173.235 238.096 171.437 229.782 168.253 225.487C165.069 221.192 158.014 217.448 153.022 216.892C148.03 216.336 141.117 219.524 138.351 222.85C135.585 226.175 133.782 231.026 133.364 236.296L129.222 235.754C129.222 235.754 126.318 238.805 124.658 239.498C122.997 240.192 74.0019 237.698 72.6163 237.28C71.2308 236.861 67.649 233.398 66.8236 233.122C65.9982 232.847 62.8094 232.429 62.8094 232.429C62.8094 232.429 60.7311 223.573 55.6115 220.232C50.4919 216.892 43.5691 216.906 39.5549 219.248C35.5408 221.59 33.7425 225.9 33.1677 227.287C32.5928 228.675 32.3324 229.506 32.3324 229.506L29.974 228.778C29.8414 230.844 29.7922 232.773 30.0084 233.417C30.9289 235.776 31.9922 238.076 33.1922 240.305C33.8025 241.212 34.5816 241.992 35.4867 242.603L35.757 242.75C34.9757 240.207 33.4428 235.031 33.4428 233.378C33.4428 231.164 34.5483 224.232 39.5304 222.013C44.5124 219.794 50.3396 219.937 55.0317 223.676C59.7239 227.415 61.419 235.041 62.9225 239.754C64.4259 244.467 66.2438 247.656 68.3271 249.038C68.7791 249.343 69.2065 249.628 69.5996 249.884C70.71 249.884 71.3684 249.86 71.3684 249.86L140.115 251.454V248.457C140.115 248.457 137.29 247.395 136.759 246.863C136.229 246.332 134.303 239.252 136.052 232.704C137.801 226.156 143.299 219.607 150.369 219.076C157.439 218.545 165.566 222.795 168.396 229.698C171.226 236.601 172.282 247.041 172.636 247.749C172.99 248.457 173.874 248.984 175.815 249.515L177.78 250.047L181.313 251.641L227.797 249.181C227.797 249.181 234.858 246.165 235.742 244.571Z" fill="#545454" stroke="#263238" stroke-width="0.5" stroke-linecap="round" stroke-linejoin="round"/>
<path d="M47.9906 261.673C54.7201 261.673 60.1755 253.501 60.1755 243.421C60.1755 233.34 54.7201 225.168 47.9906 225.168C41.261 225.168 35.8057 233.34 35.8057 243.421C35.8057 253.501 41.261 261.673 47.9906 261.673Z" fill="#787878" stroke="#263238" stroke-width="0.5" stroke-linecap="round" stroke-linejoin="round"/>
<path d="M47.9916 257.682C53.2477 257.682 57.5086 251.296 57.5086 243.419C57.5086 235.542 53.2477 229.156 47.9916 229.156C42.7355 229.156 38.4746 235.542 38.4746 243.419C38.4746 251.296 42.7355 257.682 47.9916 257.682Z" fill="white" stroke="#263238" stroke-width="0.5" stroke-linecap="round" stroke-linejoin="round"/>
<path d="M47.9918 245.211C48.6512 245.211 49.1857 244.409 49.1857 243.42C49.1857 242.431 48.6512 241.629 47.9918 241.629C47.3324 241.629 46.7979 242.431 46.7979 243.42C46.7979 244.409 47.3324 245.211 47.9918 245.211Z" fill="white" stroke="#263238" stroke-width="0.5" stroke-linecap="round" stroke-linejoin="round"/>
<path d="M31.5989 206.786C31.6677 207.411 31.7119 209.659 31.7365 212.149C32.6602 212.05 34.1391 211.888 34.881 211.765C36.011 211.573 38.8361 206.766 39.4012 206.2C39.5581 206.059 39.6552 205.864 39.6726 205.653C39.69 205.443 39.6262 205.234 39.4945 205.069H34.5075L34.144 204.744L33.8983 205.015C33.8983 205.015 31.422 205.192 31.5989 206.786Z" fill="#F7DE5E" stroke="#263238" stroke-width="0.5" stroke-linecap="round" stroke-linejoin="round"/>
<path d="M55.9105 191.324C55.9105 191.324 51.9799 203.334 51.9504 204.529C51.9209 205.725 54.7166 218.939 54.7166 218.939" stroke="#263238" stroke-width="0.5" stroke-linecap="round" stroke-linejoin="round"/>
<path d="M59.1147 208.607C59.2671 208.915 59.3589 209.249 59.385 209.591C59.3309 209.862 57.3804 209.262 57.0512 208.937C56.8295 208.636 56.6983 208.277 56.6729 207.904C56.6729 207.904 56.7809 207.038 57.0512 206.871C57.3214 206.703 60.2006 206.654 60.2006 206.654C60.2006 206.654 59.7682 206.871 61.1832 206.984C62.0575 207.045 62.9359 206.971 63.7873 206.763C63.7873 206.763 65.8508 207.309 65.8508 207.747C65.8268 208.1 65.7524 208.448 65.6298 208.78L63.6251 209.488L63.7332 208.996C63.7332 208.996 60.0384 208.386 59.1147 208.607Z" stroke="#263238" stroke-width="0.5" stroke-linecap="round" stroke-linejoin="round"/>
<path d="M59.5479 210.23C60.6646 210.554 61.8387 210.628 62.9871 210.447" stroke="#263238" stroke-width="0.5" stroke-linecap="round" stroke-linejoin="round"/>
<path d="M93.9546 209.698C94.1083 210.006 94.2017 210.34 94.2297 210.682C94.1757 210.953 92.2202 210.358 91.8959 210.033C91.6725 209.732 91.5396 209.374 91.5127 209C91.5127 209 91.6257 208.129 91.8959 207.966C92.1662 207.804 95.0404 207.75 95.0404 207.75C95.0404 207.75 94.6081 207.966 96.0231 208.075C96.897 208.136 97.7752 208.063 98.6271 207.858C98.6271 207.858 100.691 208.399 100.691 208.842C100.667 209.195 100.594 209.543 100.475 209.875L98.4601 210.574L98.5682 210.082C98.5682 210.082 94.8783 209.482 93.9546 209.698Z" stroke="#263238" stroke-width="0.5" stroke-linecap="round" stroke-linejoin="round"/>
<path d="M94.3916 211.332C95.5087 211.653 96.6824 211.727 97.8309 211.549" stroke="#263238" stroke-width="0.5" stroke-linecap="round" stroke-linejoin="round"/>
<path d="M89.67 203.322C89.67 203.322 87.3657 209.147 87.916 215.189C88.4663 221.231 90.7657 229.358 90.6576 231.228C90.5495 233.097 88.6923 237.048 89.0116 237.599" stroke="#263238" stroke-width="0.5" stroke-linecap="round" stroke-linejoin="round"/>
<path d="M152.766 261.673C160.7 261.673 167.132 253.501 167.132 243.421C167.132 233.34 160.7 225.168 152.766 225.168C144.831 225.168 138.399 233.34 138.399 243.421C138.399 253.501 144.831 261.673 152.766 261.673Z" fill="#787878" stroke="#263238" stroke-width="0.5" stroke-linecap="round" stroke-linejoin="round"/>
<path d="M152.767 257.682C158.967 257.682 163.994 251.296 163.994 243.419C163.994 235.542 158.967 229.156 152.767 229.156C146.566 229.156 141.54 235.542 141.54 243.419C141.54 251.296 146.566 257.682 152.767 257.682Z" fill="white" stroke="#263238" stroke-width="0.5" stroke-linecap="round" stroke-linejoin="round"/>
<path d="M154.251 243.42C154.251 244.404 153.686 245.206 152.988 245.206C152.291 245.206 151.726 244.409 151.726 243.42C151.726 242.431 152.291 241.629 152.988 241.629C153.686 241.629 154.251 242.431 154.251 243.42Z" fill="white" stroke="#263238" stroke-width="0.5" stroke-linecap="round" stroke-linejoin="round"/>
<path d="M221.695 218.939C221.695 220.715 220.52 222.152 219.071 222.152C217.622 222.152 216.447 220.715 216.447 218.939C216.447 217.163 217.622 215.727 219.071 215.727C220.52 215.727 221.695 217.188 221.695 218.939Z" fill="white" stroke="#263238" stroke-width="0.5" stroke-linecap="round" stroke-linejoin="round"/>
<path d="M159.37 183.054C158.982 182.892 158.603 182.739 158.24 182.597C157.463 182.454 156.687 182.321 155.965 182.213L165.728 200.736H169.869L159.37 183.054Z" fill="white" stroke="#263238" stroke-width="0.5" stroke-linecap="round" stroke-linejoin="round"/>
<path d="M2.66992 261.613H336.652" stroke="#263238" stroke-width="0.5" stroke-linecap="round" stroke-linejoin="round"/>
<path d="M218.521 260.572H196.944V261.642H218.521V260.572Z" fill="white" stroke="#263238" stroke-width="0.5" stroke-linecap="round" stroke-linejoin="round"/>
<path d="M308.538 238.401C308.538 251.232 299.925 261.55 289.395 261.55C278.864 261.55 270.252 251.232 270.252 238.401C270.252 225.57 278.864 215.252 289.395 215.252C299.925 215.252 308.538 225.57 308.538 238.401Z" fill="#2E353A" stroke="#263238" stroke-width="0.5"/>
<path d="M304.623 238.401C304.623 246.46 299.217 252.91 292.642 252.91C286.066 252.91 280.66 246.46 280.66 238.401C280.66 230.342 286.066 223.893 292.642 223.893C299.217 223.893 304.623 230.342 304.623 238.401Z" fill="#C5C6C4" stroke="#263238" stroke-width="0.5"/>
<path d="M300.294 238.206C300.294 241.508 298.083 244.103 295.449 244.103C292.815 244.103 290.604 241.508 290.604 238.206C290.604 234.903 292.815 232.309 295.449 232.309C298.083 232.309 300.294 234.903 300.294 238.206Z" fill="#F6F8F5" stroke="#263238" stroke-width="0.5"/>
<path opacity="0.4" d="M300.294 238.206C300.294 241.508 298.083 244.103 295.449 244.103C292.815 244.103 290.604 241.508 290.604 238.206C290.604 234.903 292.815 232.309 295.449 232.309C298.083 232.309 300.294 234.903 300.294 238.206Z" fill="black" stroke="#263238" stroke-width="0.5"/>
<path d="M267.414 218.946L269.205 216.346L274.326 231.918L272.11 232.869L267.414 218.946Z" fill="black" stroke="#263238" stroke-width="0.5"/>
<path d="M271.38 219.104L271.38 219.104C271.508 219.002 271.528 218.815 271.425 218.687L271.425 218.687C271.323 218.559 271.136 218.539 271.008 218.642L271.38 219.104ZM271.38 219.104L267.563 222.172C267.435 222.274 267.248 222.254 267.146 222.126C267.043 221.998 267.063 221.811 267.191 221.709L267.191 221.709L271.008 218.642L271.38 219.104Z" fill="#2E353A" stroke="#263238" stroke-width="0.5"/>
<path d="M272.053 221.132L272.053 221.132C272.18 221.029 272.201 220.842 272.098 220.714C271.996 220.587 271.809 220.566 271.681 220.669L272.053 221.132ZM272.053 221.132L268.236 224.199C268.108 224.302 267.921 224.281 267.818 224.154C267.716 224.026 267.736 223.839 267.864 223.736L267.864 223.736L271.681 220.669L272.053 221.132Z" fill="#2E353A" stroke="#263238" stroke-width="0.5"/>
<path d="M272.726 223.159L272.727 223.159C272.854 223.057 272.875 222.87 272.772 222.742C272.67 222.614 272.483 222.594 272.355 222.696L272.726 223.159ZM272.726 223.159L268.91 226.226C268.91 226.226 268.91 226.226 268.91 226.226C268.782 226.329 268.595 226.309 268.492 226.181C268.389 226.053 268.41 225.866 268.538 225.764L268.538 225.764L272.355 222.696L272.726 223.159Z" fill="#2E353A" stroke="#263238" stroke-width="0.5"/>
<path d="M273.399 225.186L273.399 225.186C273.527 225.084 273.548 224.897 273.445 224.769C273.342 224.641 273.156 224.621 273.028 224.724L273.399 225.186ZM273.399 225.186L269.582 228.254C269.582 228.254 269.582 228.254 269.582 228.254C269.454 228.356 269.267 228.336 269.165 228.208C269.062 228.08 269.083 227.893 269.21 227.791L269.211 227.791L273.027 224.724L273.399 225.186Z" fill="#2E353A" stroke="#263238" stroke-width="0.5"/>
<path d="M274.072 227.214L274.072 227.214L270.255 230.281L270.255 230.281C270.127 230.384 269.941 230.364 269.838 230.236C269.735 230.108 269.756 229.921 269.883 229.818L269.883 229.818L273.7 226.751C273.7 226.751 273.7 226.751 273.7 226.751C273.828 226.648 274.015 226.669 274.118 226.796C274.22 226.924 274.2 227.111 274.072 227.214Z" fill="#2E353A" stroke="#263238" stroke-width="0.5"/>
<path d="M274.746 229.241L274.746 229.241C274.874 229.139 274.894 228.952 274.791 228.824C274.689 228.696 274.502 228.676 274.374 228.778L274.746 229.241ZM274.746 229.241L270.929 232.308C270.929 232.308 270.929 232.308 270.929 232.308C270.801 232.411 270.614 232.391 270.512 232.263C270.409 232.135 270.43 231.948 270.557 231.846L270.557 231.846L274.374 228.778L274.746 229.241Z" fill="#2E353A" stroke="#263238" stroke-width="0.5"/>
<path d="M304.382 228.235L306.287 230.39L300.375 230.64L300.219 230.647L300.156 230.789L296.65 238.756L261.565 240.239L264.445 229.924L304.382 228.235Z" fill="#2E353A" stroke="#263238" stroke-width="0.5"/>
<path opacity="0.1" d="M304.382 228.235L306.287 230.39L300.375 230.64L300.219 230.647L300.156 230.789L296.65 238.756L266.9 240.013L269.78 229.698L304.382 228.235Z" fill="white" stroke="#263238" stroke-width="0.5"/>
<path d="M253.549 245.345H253.37L253.312 245.514L247.881 261.449H246.822L252.745 241.546L260.748 241.393L261.806 261.449H260.809L258.742 245.563L258.714 245.345H258.494H253.549Z" fill="#2E353A" stroke="#263238" stroke-width="0.5"/>
<path d="M215.921 217.238L218.9 207.535C219.62 208.033 220.417 208.615 221.276 209.278L218.271 218.734L218.271 218.734L211.489 240.087L209.315 238.74L215.921 217.238L215.921 217.238Z" fill="#F6F8F5" stroke="#263238" stroke-width="0.5"/>
<path opacity="0.6" d="M215.921 217.238L218.9 207.535C219.62 208.033 220.417 208.615 221.276 209.278L218.271 218.734L218.271 218.734L211.489 240.087L209.315 238.74L215.921 217.238L215.921 217.238Z" fill="white" stroke="#263238" stroke-width="0.5"/>
<path d="M215.814 216.913L215.421 216.336L226.347 184.533C226.348 184.533 226.348 184.532 226.349 184.532C226.361 184.525 226.373 184.518 226.384 184.512C226.452 184.473 226.545 184.422 226.659 184.369C226.89 184.263 227.199 184.153 227.543 184.13C227.885 184.106 228.263 184.168 228.642 184.405C229.008 184.634 229.392 185.037 229.745 185.724L219.111 218.558H218.597C217.847 217.696 217.141 217.28 216.604 217.082C216.327 216.981 216.098 216.938 215.933 216.921C215.888 216.917 215.848 216.914 215.814 216.913Z" fill="#2E353A" stroke="#263238" stroke-width="0.5"/>
<path d="M212.716 238.366C212.716 239.187 212.482 239.92 212.118 240.44C211.753 240.961 211.272 241.252 210.769 241.252C210.267 241.252 209.786 240.961 209.421 240.44C209.056 239.919 208.822 239.187 208.822 238.366C208.822 237.545 209.056 236.813 209.42 236.292C209.786 235.771 210.266 235.48 210.769 235.48C211.272 235.48 211.753 235.771 212.118 236.292C212.483 236.813 212.716 237.545 212.716 238.366Z" fill="#2E353A" stroke="#263238" stroke-width="0.5"/>
<path d="M306.702 214.077V214.631H302.856C302.82 214.583 302.772 214.519 302.711 214.441C302.565 214.254 302.347 213.988 302.056 213.668C301.475 213.029 300.601 212.174 299.431 211.306C297.243 209.683 294.015 208.016 289.717 207.634L297.285 203.816L306.702 214.077Z" fill="black" stroke="#263238" stroke-width="0.5"/>
<path d="M296.252 206.029L276.152 215.225L276.248 215.435L276.152 215.225C274.008 216.206 272.095 217.628 270.537 219.398C267.845 222.459 266.36 226.396 266.36 230.472V243.79C266.36 244.104 266.105 244.358 265.791 244.358H260.986C260.672 244.358 260.417 244.104 260.417 243.79V243.681L260.338 243.607L253.35 237.083L246.783 211.93L261.07 205.969L294.984 203.767L296.252 206.029Z" fill="#2E353A" stroke="#263238" stroke-width="0.5"/>
<path opacity="0.1" d="M296.252 206.029L276.152 215.225L276.248 215.435L276.152 215.225C274.008 216.206 272.095 217.628 270.537 219.398C267.845 222.459 266.36 226.396 266.36 230.472V243.79C266.36 244.104 266.105 244.358 265.791 244.358H260.986C260.672 244.358 260.417 244.104 260.417 243.79V243.681L260.338 243.607L253.35 237.083L246.783 211.93L261.07 205.969L294.984 203.767L296.252 206.029Z" fill="white" stroke="#263238" stroke-width="0.5"/>
<path d="M264.208 237.217V237.217C264.208 238.805 262.921 240.092 261.333 240.092H248.75C247.162 240.092 245.875 238.805 245.875 237.217V229.16C245.875 227.572 247.162 226.285 248.75 226.285H261.333C262.921 226.285 264.208 227.573 264.208 229.16V237.217Z" fill="#2E353A" stroke="#263238" stroke-width="0.5"/>
<path opacity="0.2" d="M264.211 229.159V237.215C264.211 238.801 262.919 240.089 261.332 240.089H248.747C247.161 240.089 245.874 238.802 245.874 237.215V229.159C245.874 227.572 247.161 226.285 248.747 226.285H261.332C262.919 226.285 264.211 227.573 264.211 229.159Z" fill="white" stroke="#263238" stroke-width="0.5"/>
<path opacity="0.2" d="M264.212 229.159V237.215C264.212 238.801 262.92 240.089 261.333 240.089H256.25C254.664 240.089 253.377 238.802 253.377 237.215V229.159C253.377 227.572 254.664 226.285 256.25 226.285H261.333C262.92 226.285 264.212 227.573 264.212 229.159Z" fill="white" stroke="#263238" stroke-width="0.5"/>
<path d="M227.486 194.189C229.909 191.76 236.875 189.528 246.421 194.237M227.486 194.189L246.421 194.237M227.486 194.189L227.309 194.012L246.421 194.237M227.486 194.189C225.394 196.286 224.369 200.258 225.034 204.261C225.697 208.25 228.031 212.22 232.59 214.321L232.495 214.527L232.59 214.321C237.145 216.421 242.901 215.536 247.817 213.711C250.269 212.801 252.498 211.663 254.243 210.563C255.997 209.456 257.234 208.406 257.731 207.683C258.69 206.287 258.329 204.15 256.432 201.696C254.549 199.259 251.204 196.596 246.421 194.237" fill="#F6F8F5" stroke="#263238" stroke-width="0.5"/>
<path opacity="0.2" d="M227.486 194.189C229.909 191.76 236.875 189.528 246.421 194.237M227.486 194.189L246.421 194.237M227.486 194.189L227.309 194.012L246.421 194.237M227.486 194.189C225.394 196.286 224.369 200.258 225.034 204.261C225.697 208.25 228.031 212.22 232.59 214.321L232.495 214.527L232.59 214.321C237.145 216.421 242.901 215.536 247.817 213.711C250.269 212.801 252.498 211.663 254.243 210.563C255.997 209.456 257.234 208.406 257.731 207.683C258.69 206.287 258.329 204.15 256.432 201.696C254.549 199.259 251.204 196.596 246.421 194.237" fill="black" stroke="#263238" stroke-width="0.5"/>
<path d="M268.861 206.595L268.861 206.597C268.787 206.989 268.635 207.352 268.409 207.681C267.911 208.406 266.675 209.456 264.92 210.562C263.176 211.662 260.947 212.801 258.495 213.711C253.579 215.536 247.824 216.422 243.268 214.323C238.708 212.22 236.374 208.249 235.712 204.259C235.047 200.256 236.073 196.284 238.167 194.187L238.167 194.187C240.589 191.759 247.555 189.525 257.1 194.234C259.501 195.419 261.543 196.682 263.216 197.952L263.216 197.952C265.327 199.555 266.853 201.171 267.793 202.665C268.735 204.163 269.073 205.512 268.861 206.595Z" fill="#F6F8F5" stroke="#263238" stroke-width="0.5"/>
<path d="M233.814 200.359H222.036L223.646 192.142L234.058 191.012C234.27 191.015 234.475 191.11 234.673 191.294C234.877 191.482 235.062 191.754 235.217 192.075C235.53 192.718 235.7 193.505 235.7 194.058V198.474C235.7 199.515 234.856 200.359 233.814 200.359Z" fill="#263238" stroke="#263238" stroke-width="0.5"/>
<path d="M227.272 216.946L227.272 216.946C228.88 218.1 230.484 219.954 231.99 222.103C233.493 224.249 234.888 226.674 236.08 228.956C237.271 231.237 238.259 233.372 238.948 234.937C239.292 235.719 239.563 236.359 239.746 236.802C239.802 236.937 239.85 237.054 239.89 237.151H235.841C234.712 237.151 233.671 236.534 233.141 235.541C231.98 233.366 229.711 229.489 226.542 225.811C223.376 222.136 219.292 218.635 214.497 217.25C213.026 216.825 212.044 216.427 211.452 216.07C211.156 215.891 210.974 215.733 210.876 215.6C210.781 215.473 210.776 215.388 210.79 215.331C210.808 215.263 210.868 215.168 211.025 215.058C211.178 214.95 211.401 214.844 211.692 214.747C212.274 214.551 213.084 214.403 214.051 214.316C215.98 214.144 218.485 214.222 220.914 214.636C223.347 215.051 225.675 215.799 227.272 216.946Z" fill="#263238" stroke="#263238" stroke-width="0.5"/>
<path d="M211.657 260.572H203.986V185.85C203.986 184.832 204.39 183.856 205.109 183.136C205.828 182.416 206.803 182.012 207.82 182.012C208.837 182.012 209.812 182.416 210.532 183.136C211.251 183.855 211.656 184.832 211.657 185.85V260.572Z" fill="#B4B4B4" stroke="#263238" stroke-width="0.5" stroke-linecap="round" stroke-linejoin="round"/>
<path d="M211.653 187.725H203.986V190.403H211.653V187.725Z" fill="white" stroke="#263238" stroke-width="0.5" stroke-linecap="round" stroke-linejoin="round"/>
<path opacity="0.4" d="M227.272 216.946L227.272 216.946C228.88 218.1 230.484 219.954 231.99 222.103C233.493 224.249 234.888 226.674 236.08 228.956C237.271 231.237 238.259 233.372 238.948 234.937C239.292 235.719 239.563 236.359 239.746 236.802C239.802 236.937 239.85 237.054 239.89 237.151H235.841C234.712 237.151 233.671 236.534 233.141 235.541C231.98 233.366 229.711 229.489 226.542 225.811C223.376 222.136 219.292 218.635 214.497 217.25C213.026 216.825 212.044 216.427 211.452 216.07C211.156 215.891 210.974 215.733 210.876 215.6C210.781 215.473 210.776 215.388 210.79 215.331C210.808 215.263 210.868 215.168 211.025 215.058C211.178 214.95 211.401 214.844 211.692 214.747C212.274 214.551 213.084 214.403 214.051 214.316C215.98 214.144 218.485 214.222 220.914 214.636C223.347 215.051 225.675 215.799 227.272 216.946Z" fill="black" stroke="#263238" stroke-width="0.5"/>
<path d="M232.822 239.302C232.822 251.634 224.545 261.548 214.428 261.548C204.311 261.548 196.033 251.634 196.033 239.302C196.033 226.97 204.311 217.057 214.428 217.057C224.545 217.057 232.822 226.97 232.822 239.302Z" fill="#2E353A" stroke="#263238" stroke-width="0.5"/>
<path d="M229.058 239.304C229.058 247.047 223.863 253.242 217.549 253.242C211.234 253.242 206.039 247.047 206.039 239.304C206.039 231.56 211.234 225.365 217.549 225.365C223.863 225.365 229.058 231.56 229.058 239.304Z" fill="#C5C6C4" stroke="#263238" stroke-width="0.5"/>
<path d="M224.897 239.115C224.897 242.287 222.774 244.775 220.249 244.775C217.724 244.775 215.601 242.287 215.601 239.115C215.601 235.943 217.724 233.455 220.249 233.455C222.774 233.455 224.897 235.943 224.897 239.115Z" fill="#F6F8F5" stroke="#263238" stroke-width="0.5"/>
<path opacity="0.4" d="M224.897 239.115C224.897 242.287 222.774 244.775 220.249 244.775C217.724 244.775 215.601 242.287 215.601 239.115C215.601 235.943 217.724 233.455 220.249 233.455C222.774 233.455 224.897 235.943 224.897 239.115Z" fill="black" stroke="#263238" stroke-width="0.5"/>
<path d="M206.053 223.42L206.053 223.42C204.717 224.422 203.104 224.973 201.437 224.973H199.364C198.455 224.973 197.812 224.09 198.088 223.225C199.091 220.092 201.931 215.631 206.246 212.645C210.548 209.667 216.313 208.157 223.203 210.894L223.295 210.661L223.203 210.894C230.303 213.713 234.508 220.321 236.941 226.269C238.156 229.238 238.923 232.031 239.387 234.082C239.619 235.107 239.775 235.946 239.873 236.528C239.915 236.775 239.946 236.976 239.968 237.124C239.481 237.033 239.062 236.716 238.849 236.257L238.849 236.257C238.053 234.548 236.26 230.997 233.634 227.529C231.013 224.066 227.539 220.656 223.374 219.275C216.178 216.889 209.279 221.004 206.053 223.42Z" fill="#F6F8F5" stroke="#263238" stroke-width="0.5"/>
<path d="M227.134 217.238L230.113 207.535C230.833 208.033 231.63 208.615 232.489 209.278L229.483 218.734L229.483 218.734L222.702 240.087L220.528 238.74L227.134 217.238L227.134 217.238Z" fill="#F6F8F5" stroke="#263238" stroke-width="0.5"/>
<path opacity="0.6" d="M227.134 217.238L230.113 207.535C230.833 208.033 231.63 208.615 232.489 209.278L229.483 218.734L229.483 218.734L222.702 240.087L220.528 238.74L227.134 217.238L227.134 217.238Z" fill="white" stroke="#263238" stroke-width="0.5"/>
<path d="M227.026 216.913L226.634 216.336L237.56 184.533C237.56 184.533 237.561 184.532 237.562 184.532C237.574 184.525 237.586 184.518 237.597 184.512C237.665 184.473 237.758 184.422 237.872 184.369C238.102 184.263 238.411 184.153 238.756 184.13C239.097 184.106 239.475 184.168 239.855 184.405C240.221 184.634 240.605 185.037 240.958 185.724L230.324 218.558H229.81C229.06 217.696 228.354 217.28 227.817 217.082C227.54 216.981 227.311 216.938 227.146 216.921C227.101 216.917 227.061 216.914 227.026 216.913Z" fill="#2E353A" stroke="#263238" stroke-width="0.5"/>
<path d="M223.929 238.366C223.929 239.187 223.695 239.92 223.331 240.44C222.965 240.961 222.485 241.252 221.982 241.252C221.48 241.252 220.999 240.961 220.634 240.44C220.269 239.919 220.035 239.187 220.035 238.366C220.035 237.545 220.269 236.813 220.633 236.292C220.999 235.771 221.479 235.48 221.982 235.48C222.485 235.48 222.966 235.771 223.331 236.292C223.695 236.813 223.929 237.545 223.929 238.366Z" fill="#2E353A" stroke="#263238" stroke-width="0.5"/>
<path d="M221.729 200.359C220.862 200.371 220.193 199.97 219.718 199.328C219.238 198.679 218.959 197.784 218.905 196.837C218.796 194.92 219.606 192.963 221.272 192.451L221.272 192.451C222.694 192.013 224.112 192.142 225.184 192.386C225.719 192.508 226.163 192.657 226.473 192.776C226.601 192.824 226.705 192.868 226.784 192.902C226.776 192.943 226.767 192.99 226.757 193.042C226.716 193.252 226.652 193.553 226.563 193.915C226.385 194.639 226.106 195.602 225.702 196.565C225.297 197.53 224.772 198.48 224.109 199.188C223.449 199.894 222.664 200.347 221.729 200.359ZM221.199 192.212L221.199 192.212L221.199 192.212Z" fill="#F6F8F5" stroke="#263238" stroke-width="0.5"/>
<path d="M221.729 200.359C220.862 200.371 220.193 199.97 219.718 199.328C219.238 198.679 218.959 197.784 218.905 196.837C218.796 194.92 219.606 192.963 221.272 192.451L221.272 192.451C222.694 192.013 224.112 192.142 225.184 192.386C225.719 192.508 226.163 192.657 226.473 192.776C226.601 192.824 226.705 192.868 226.784 192.902C226.776 192.943 226.767 192.99 226.757 193.042C226.716 193.252 226.652 193.553 226.563 193.915C226.385 194.639 226.106 195.602 225.702 196.565C225.297 197.53 224.772 198.48 224.109 199.188C223.449 199.894 222.664 200.347 221.729 200.359ZM221.199 192.212L221.199 192.212L221.199 192.212Z" fill="#263238" stroke="#263238" stroke-width="0.5"/>
<path d="M221.568 199.679C220.203 199.679 219.065 198.255 219.152 196.354C219.239 194.451 220.516 193.006 221.897 193.006C223.261 193.006 224.4 194.43 224.313 196.331C224.225 198.233 222.949 199.679 221.568 199.679Z" fill="#F6F8F5" stroke="#263238" stroke-width="0.5"/>
<path opacity="0.7" d="M221.568 199.679C220.203 199.679 219.065 198.255 219.152 196.354C219.239 194.451 220.516 193.006 221.897 193.006C223.261 193.006 224.4 194.43 224.313 196.331C224.225 198.233 222.949 199.679 221.568 199.679Z" fill="white" stroke="#263238" stroke-width="0.5"/>
<path d="M222.178 197.278C222.178 198.078 221.683 198.614 221.197 198.614C220.71 198.614 220.216 198.078 220.216 197.278C220.216 196.477 220.711 195.941 221.197 195.941C221.684 195.941 222.178 196.477 222.178 197.278Z" fill="white" stroke="#263238" stroke-width="0.5"/>
<path d="M223.22 195.215C223.22 195.578 223.002 195.759 222.855 195.759C222.708 195.759 222.489 195.578 222.489 195.215C222.489 194.853 222.708 194.672 222.855 194.672C223.001 194.672 223.22 194.852 223.22 195.215Z" fill="white" stroke="#263238" stroke-width="0.5"/>
<path d="M227.756 192.451L227.756 192.451C229.177 192.013 230.595 192.142 231.668 192.386C232.202 192.508 232.647 192.657 232.957 192.776C233.084 192.824 233.188 192.868 233.267 192.902C233.259 192.943 233.25 192.99 233.24 193.042C233.199 193.252 233.135 193.553 233.046 193.915C232.868 194.639 232.589 195.602 232.185 196.565C231.78 197.53 231.256 198.48 230.593 199.188C229.932 199.894 229.148 200.347 228.213 200.359C227.345 200.371 226.676 199.97 226.201 199.328C225.721 198.679 225.442 197.784 225.388 196.837C225.28 194.92 226.089 192.963 227.756 192.451Z" fill="#F6F8F5" stroke="#263238" stroke-width="0.5"/>
<path d="M227.756 192.451L227.756 192.451C229.177 192.013 230.595 192.142 231.668 192.386C232.202 192.508 232.647 192.657 232.957 192.776C233.084 192.824 233.188 192.868 233.267 192.902C233.259 192.943 233.25 192.99 233.24 193.042C233.199 193.252 233.135 193.553 233.046 193.915C232.868 194.639 232.589 195.602 232.185 196.565C231.78 197.53 231.256 198.48 230.593 199.188C229.932 199.894 229.148 200.347 228.213 200.359C227.345 200.371 226.676 199.97 226.201 199.328C225.721 198.679 225.442 197.784 225.388 196.837C225.28 194.92 226.089 192.963 227.756 192.451Z" fill="#263238" stroke="#263238" stroke-width="0.5"/>
<path d="M228.052 199.677C226.687 199.677 225.548 198.253 225.635 196.352C225.723 194.449 226.999 193.004 228.38 193.004C229.745 193.004 230.883 194.428 230.796 196.329C230.709 198.231 229.432 199.677 228.052 199.677Z" fill="#F6F8F5" stroke="#263238" stroke-width="0.5"/>
<path opacity="0.7" d="M228.052 199.677C226.687 199.677 225.548 198.253 225.635 196.352C225.723 194.449 226.999 193.004 228.38 193.004C229.745 193.004 230.883 194.428 230.796 196.329C230.709 198.231 229.432 199.677 228.052 199.677Z" fill="white" stroke="#263238" stroke-width="0.5"/>
<path d="M228.662 197.278C228.662 198.078 228.167 198.614 227.68 198.614C227.194 198.614 226.699 198.078 226.699 197.278C226.699 196.477 227.194 195.941 227.68 195.941C228.167 195.941 228.662 196.477 228.662 197.278Z" fill="white" stroke="#263238" stroke-width="0.5"/>
<path d="M229.704 195.213C229.704 195.576 229.485 195.757 229.338 195.757C229.192 195.757 228.973 195.576 228.973 195.213C228.973 194.85 229.192 194.67 229.338 194.67C229.485 194.67 229.704 194.85 229.704 195.213Z" fill="white" stroke="#263238" stroke-width="0.5"/>
<path d="M234.117 197.465C234.079 197.574 233.977 197.647 233.863 197.647C233.714 197.647 233.595 197.526 233.595 197.379V193.186C233.595 192.306 232.881 191.592 232 191.592H223.643L227.362 186.734C227.631 186.383 228.048 186.178 228.489 186.178H237.199C237.567 186.178 237.827 186.54 237.708 186.888L237.939 186.967L237.708 186.888L234.117 197.465C234.117 197.465 234.117 197.465 234.117 197.465Z" fill="#F6F8F5" stroke="#263238" stroke-width="0.5"/>
<path d="M220.186 202.026L220.186 202.026C220.305 201.715 220.551 201.421 220.863 201.203C221.176 200.986 221.534 200.859 221.859 200.859H233.6C233.922 200.859 234.129 200.981 234.235 201.138C234.342 201.296 234.379 201.539 234.262 201.848L232.525 206.407C232.525 206.407 232.525 206.407 232.525 206.407C232.407 206.717 232.16 207.012 231.848 207.229C231.536 207.446 231.178 207.573 230.852 207.573H219.111C218.789 207.573 218.582 207.452 218.476 207.295C218.369 207.136 218.332 206.893 218.449 206.585C218.449 206.585 218.449 206.585 218.449 206.585L220.186 202.026Z" fill="#2E353A" stroke="#263238" stroke-width="0.5"/>
<path opacity="0.2" d="M220.186 202.026L220.186 202.026C220.305 201.715 220.551 201.421 220.863 201.203C221.176 200.986 221.534 200.859 221.859 200.859H233.6C233.922 200.859 234.129 200.981 234.235 201.138C234.342 201.296 234.379 201.539 234.262 201.848L232.525 206.407C232.525 206.407 232.525 206.407 232.525 206.407C232.407 206.717 232.16 207.012 231.848 207.229C231.536 207.446 231.178 207.573 230.852 207.573H219.111C218.789 207.573 218.582 207.452 218.476 207.295C218.369 207.136 218.332 206.893 218.449 206.585C218.449 206.585 218.449 206.585 218.449 206.585L220.186 202.026Z" fill="white" stroke="#263238" stroke-width="0.5"/>
<path opacity="0.2" d="M260.763 233.188C260.763 234.851 260.354 236.345 259.706 237.414C259.055 238.488 258.191 239.098 257.281 239.098C256.372 239.098 255.507 238.488 254.857 237.414C254.209 236.345 253.8 234.851 253.8 233.188C253.8 231.524 254.209 230.031 254.857 228.961C255.507 227.887 256.372 227.277 257.281 227.277C258.191 227.277 259.055 227.887 259.706 228.961C260.354 230.031 260.763 231.524 260.763 233.188Z" fill="white" stroke="#263238" stroke-width="0.5"/>
<path d="M257.107 223.698L257.107 223.698L255.295 218.192C255.295 218.192 255.295 218.192 255.295 218.192C255.002 217.299 255.554 216.356 256.477 216.168L256.477 216.168C259.781 215.496 263.857 213.509 265.711 212.546C266.251 212.266 266.903 212.322 267.386 212.692L270.787 215.294L270.787 215.294C271.45 215.802 271.599 216.74 271.125 217.428L266.522 224.098C266.522 224.098 266.522 224.098 266.522 224.098C266.23 224.522 265.748 224.775 265.233 224.775H258.595C257.918 224.775 257.318 224.341 257.107 223.698Z" fill="#F6F8F5" stroke="#263238" stroke-width="0.5"/>
<path d="M260.964 243.333C260.935 243.381 260.908 243.421 260.886 243.453L260.76 243.449C260.592 243.444 260.348 243.437 260.044 243.428C259.434 243.411 258.582 243.389 257.61 243.371C255.667 243.334 253.242 243.309 251.322 243.36C249.438 243.409 247.712 242.322 246.939 240.603L242.499 230.717L248.605 230.899L250.984 237.846C251.529 239.438 253.026 240.508 254.709 240.508H261.812C261.775 241.409 261.543 242.148 261.311 242.674C261.184 242.961 261.058 243.183 260.964 243.333Z" fill="#2E353A" stroke="#263238" stroke-width="0.5"/>
<path d="M252.3 218.587L252.3 218.59L252.279 218.886L252.279 218.889L252.236 219.404L252.236 219.404L252.124 220.76L252.124 220.763L252.087 221.278L252.086 221.281L251.974 222.634L251.974 222.634L251.932 223.152L251.932 223.153L251.825 224.508L251.825 224.509L251.782 225.026L251.782 225.027L251.675 226.382L251.675 226.383L251.633 226.9L251.633 226.901L251.499 228.561C251.499 228.561 251.499 228.561 251.499 228.561C251.414 229.601 250.545 230.403 249.501 230.403H241.31C240.399 230.403 239.606 229.791 239.374 228.913C239.374 228.912 239.374 228.912 239.374 228.912L238.834 226.857L238.834 226.856L238.696 226.339L238.695 226.338L238.338 224.984L238.338 224.983L238.205 224.466L238.204 224.465L237.847 223.109L237.846 223.108L237.708 222.591L237.708 222.59L237.35 221.236L237.35 221.235L237.217 220.718L237.217 220.718L237.217 220.717L236.859 219.361L236.859 219.36L236.72 218.843L236.72 218.842L236.405 217.642L236.405 217.642L236.405 217.641C236.282 217.181 236.329 216.688 236.542 216.257L236.542 216.257L236.543 216.256C236.71 215.913 236.966 215.628 237.278 215.435C237.591 215.24 237.962 215.131 238.342 215.131H248.598C249.036 215.131 249.463 215.274 249.809 215.534C249.809 215.534 249.809 215.534 249.809 215.534L251.512 216.826L251.512 216.826C252.058 217.239 252.357 217.904 252.3 218.587Z" fill="#2E353A" stroke="#263238" stroke-width="0.5"/>
<path opacity="0.2" d="M252.3 218.587L252.3 218.59L252.279 218.886L252.279 218.889L252.236 219.404L252.236 219.404L252.124 220.76L252.124 220.763L252.087 221.278L252.086 221.281L251.974 222.634L251.974 222.634L251.932 223.152L251.932 223.153L251.825 224.508L251.825 224.509L251.782 225.026L251.782 225.027L251.675 226.382L251.675 226.383L251.633 226.9L251.633 226.901L251.499 228.561C251.499 228.561 251.499 228.561 251.499 228.561C251.414 229.601 250.545 230.403 249.501 230.403H241.31C240.399 230.403 239.606 229.791 239.374 228.913C239.374 228.912 239.374 228.912 239.374 228.912L238.834 226.857L238.834 226.856L238.696 226.339L238.695 226.338L238.338 224.984L238.338 224.983L238.205 224.466L238.204 224.465L237.847 223.109L237.846 223.108L237.708 222.591L237.708 222.59L237.35 221.236L237.35 221.235L237.217 220.718L237.217 220.718L237.217 220.717L236.859 219.361L236.859 219.36L236.72 218.843L236.72 218.842L236.405 217.642L236.405 217.642L236.405 217.641C236.282 217.181 236.329 216.688 236.542 216.257L236.542 216.257L236.543 216.256C236.71 215.913 236.966 215.628 237.278 215.435C237.591 215.24 237.962 215.131 238.342 215.131H248.598C249.036 215.131 249.463 215.274 249.809 215.534C249.809 215.534 249.809 215.534 249.809 215.534L251.512 216.826L251.512 216.826C252.058 217.239 252.357 217.904 252.3 218.587Z" fill="white" stroke="#263238" stroke-width="0.5"/>
<path opacity="0.2" d="M252.301 218.587L252.301 218.59L252.279 218.887L252.237 219.404L252.237 219.404L252.125 220.76L252.125 220.76L252.124 220.763L252.087 221.278L252.087 221.281L251.975 222.634L251.975 222.634L251.932 223.152L251.932 223.153L251.826 224.508L251.826 224.509L251.783 225.026L251.783 225.027L251.676 226.382L251.676 226.383L251.633 226.9L251.633 226.901L251.5 228.561C251.5 228.561 251.5 228.561 251.5 228.561C251.414 229.601 250.546 230.403 249.501 230.403H248.786C247.88 230.403 247.082 229.79 246.849 228.913C246.849 228.912 246.849 228.912 246.849 228.912L246.31 226.857L246.31 226.856L246.171 226.339L246.171 226.338L245.814 224.984L245.813 224.983L245.68 224.466L245.68 224.465L245.322 223.109L245.322 223.108L245.183 222.591L245.183 222.59L244.826 221.236L244.826 221.235L244.693 220.718L244.693 220.718L244.692 220.717L244.334 219.361L244.334 219.36L244.196 218.843L244.195 218.842L243.881 217.642L243.881 217.642L243.88 217.641C243.757 217.181 243.805 216.688 244.018 216.257L244.018 216.257L244.019 216.256C244.185 215.913 244.442 215.628 244.753 215.435C245.067 215.24 245.438 215.131 245.817 215.131H248.599C249.036 215.131 249.464 215.274 249.81 215.534C249.81 215.534 249.81 215.534 249.81 215.534L251.513 216.826L251.513 216.826C252.058 217.239 252.357 217.904 252.301 218.587Z" fill="white" stroke="#263238" stroke-width="0.5"/>
<path opacity="0.2" d="M236.808 219.174L236.803 219.156H252.256L252.254 219.174H236.808Z" fill="black" stroke="#263238" stroke-width="0.5"/>
<path opacity="0.2" d="M237.302 221.049L237.297 221.031H252.104L252.103 221.049H237.302Z" fill="black" stroke="#263238" stroke-width="0.5"/>
<path opacity="0.2" d="M237.796 222.922L237.792 222.904H251.952L251.95 222.922H237.796Z" fill="black" stroke="#263238" stroke-width="0.5"/>
<path opacity="0.2" d="M238.29 224.797L238.285 224.779H251.803L251.802 224.797H238.29Z" fill="black" stroke="#263238" stroke-width="0.5"/>
<path opacity="0.2" d="M238.785 226.67L238.78 226.652H251.654L251.652 226.67H238.785Z" fill="black" stroke="#263238" stroke-width="0.5"/>
<path opacity="0.2" d="M261.813 240.508H254.706C253.023 240.508 251.53 239.436 250.983 237.846L250.983 237.845L248.604 230.897L244.26 230.769L244.26 230.769L242.497 230.717L246.941 240.598L246.941 240.599C247.712 242.322 249.439 243.406 251.319 243.356C251.319 243.356 251.319 243.356 251.319 243.356L251.326 243.605C251.812 243.589 252.335 243.584 252.869 243.584L261.813 240.508ZM261.813 240.508C261.749 242.056 261.105 243.13 260.886 243.453C260.8 243.45 260.676 243.446 260.517 243.442C260.197 243.432 259.738 243.419 259.184 243.406C258.075 243.378 256.584 243.347 255.055 243.334V243.334H255.053H254.638C254.044 243.329 253.446 243.329 252.868 243.334L261.813 240.508Z" fill="white" stroke="#263238" stroke-width="0.5"/>
<path opacity="0.2" d="M254.636 243.335V243.334L254.633 243.335C254.228 243.34 253.831 243.345 253.455 243.356C253.266 243.361 253.075 243.356 252.897 243.336L252.897 243.336L252.893 243.336C251.236 243.179 249.771 242.145 249.077 240.599L249.077 240.599L244.659 230.781L248.604 230.898L250.983 237.846L250.983 237.846C251.53 239.436 253.023 240.508 254.706 240.508H261.813C261.752 241.975 261.171 243.015 260.924 243.396C259.314 243.359 257.07 243.319 255.052 243.335H254.636Z" fill="white" stroke="#263238" stroke-width="0.5"/>
<path d="M269.104 205.196L269.486 205.207C269.902 205.219 270.231 205.56 270.227 205.976C270.219 206.714 270.209 207.822 270.209 208.467C270.209 209.895 272.84 212.596 273.368 212.749C273.896 212.903 298.504 205.125 298.504 205.125C298.504 205.125 298.926 199.821 296.603 198.752C294.279 197.682 281.441 198.825 280.339 199.927C279.237 201.029 275.533 203.507 271.652 203.507C271.652 203.507 269.104 204.189 269.104 205.196Z" fill="#2E353A" stroke="#263238" stroke-width="0.5"/>
<path d="M294.136 201.726L294.136 201.726C294.638 201.369 294.823 200.709 294.579 200.142C294.579 200.142 294.579 200.142 294.579 200.142L294.339 199.582L294.109 199.68L294.339 199.582L294.339 199.582C294.112 199.051 293.593 198.715 293.02 198.715H284.802C285.528 198.462 286.438 198.144 287.283 197.844C287.475 197.777 287.834 197.719 288.345 197.675C288.848 197.632 289.475 197.605 290.187 197.59C291.611 197.561 293.363 197.581 295.117 197.62C297 197.663 298.892 197.729 300.378 197.78C301.652 197.825 302.627 197.859 303.041 197.859C303.953 197.859 304.506 198.203 304.809 198.502L304.809 198.502L304.812 198.504C304.934 198.622 305.021 198.735 305.077 198.819L294.465 209.133L281.971 212.845L281.644 210.576L294.136 201.726Z" fill="#F6F8F5" stroke="#263238" stroke-width="0.5"/>
<path d="M245.348 182.529H248.608V183.875V184.059L248.783 184.114L258.983 187.323C258.986 187.354 258.988 187.388 258.99 187.425C259 187.587 259.006 187.804 258.994 188.03C258.981 188.258 258.95 188.483 258.89 188.665C258.847 188.797 258.795 188.886 258.741 188.943L247.557 186.011L247.526 186.003H247.494H244.504H244.381L244.306 186.1L244.306 186.1L244.306 186.1L244.306 186.1L244.305 186.101L244.301 186.106L244.283 186.129C244.267 186.148 244.243 186.178 244.212 186.216C244.148 186.291 244.054 186.401 243.933 186.533C243.69 186.796 243.341 187.15 242.913 187.506C242.049 188.227 240.902 188.932 239.693 188.996C239.075 189.029 238.748 188.915 238.579 188.779C238.419 188.651 238.359 188.469 238.362 188.246C238.367 188.017 238.44 187.774 238.519 187.577C238.55 187.501 238.581 187.434 238.606 187.382C238.624 187.381 238.642 187.381 238.663 187.379C238.795 187.372 238.985 187.357 239.22 187.322C239.688 187.252 240.335 187.106 241.056 186.799C242.474 186.197 244.169 184.978 245.348 182.529Z" fill="#2E353A" stroke="#263238" stroke-width="0.5"/>
<path d="M252.947 190.193V190.512H252.808V190.128V190.03L252.741 189.958C252.27 189.451 251.602 189.021 250.88 188.662C250.156 188.301 249.363 188.004 248.631 187.769C247.898 187.533 247.222 187.357 246.728 187.241C246.482 187.183 246.281 187.139 246.141 187.11C246.135 187.109 246.13 187.108 246.125 187.107V185.168H247.811V186.889V187.053L247.961 187.118C250.261 188.122 251.525 188.922 252.209 189.462C252.55 189.731 252.745 189.935 252.852 190.065C252.899 190.122 252.929 190.165 252.947 190.193Z" fill="#2E353A" stroke="#263238" stroke-width="0.5"/>
<path d="M220.489 190.249L220.435 190.984C220.324 190.981 220.203 190.968 220.109 190.935C220.009 190.9 219.996 190.865 219.993 190.849C219.985 190.814 219.988 190.692 220.17 190.431C220.345 190.182 220.64 189.896 220.999 189.6C221.356 189.307 221.762 189.015 222.148 188.756C222.533 188.497 222.895 188.272 223.161 188.112C223.293 188.032 223.402 187.968 223.477 187.924C223.514 187.902 223.544 187.885 223.563 187.874L223.586 187.861L223.591 187.858L223.592 187.857L223.593 187.857L223.593 187.857L223.593 187.857L223.686 187.805L223.712 187.701L224.008 186.537L224.17 185.903L223.627 186.268L218.04 190.025C217.59 190.064 217.301 190.007 217.117 189.921C216.931 189.834 216.836 189.71 216.784 189.584C216.73 189.45 216.72 189.305 216.728 189.184C216.731 189.141 216.735 189.103 216.74 189.073L223.005 184.342L223.059 184.301L223.085 184.239L223.636 182.914H226.1C226.099 183.817 226.29 184.717 226.487 185.404C226.596 185.783 226.707 186.101 226.791 186.325C226.815 186.388 226.837 186.444 226.856 186.492L224.485 188.149C223.47 188.188 222.497 188.673 221.787 189.134C221.42 189.373 221.116 189.61 220.903 189.788C220.797 189.877 220.713 189.951 220.655 190.004C220.626 190.03 220.604 190.051 220.589 190.065L220.571 190.082L220.566 190.087L220.565 190.088L220.564 190.089L220.564 190.089C220.564 190.089 220.564 190.089 220.739 190.268L220.564 190.089L220.496 190.155L220.489 190.249Z" fill="#2E353A" stroke="#263238" stroke-width="0.5"/>
<path opacity="0.2" d="M248.144 203.745L248.145 203.745C253.247 201.914 260.476 199.137 263.327 198.037C265.381 199.612 266.87 201.198 267.793 202.666C268.726 204.149 269.067 205.485 268.868 206.562C268.377 207.521 267.43 208.475 266.196 209.352C264.952 210.236 263.435 211.028 261.848 211.658C260.262 212.287 258.614 212.752 257.108 212.985C255.598 213.219 254.254 213.215 253.266 212.928C251.239 212.339 248.379 210.531 246.837 208.599C246.063 207.63 245.662 206.68 245.792 205.866C245.918 205.075 246.565 204.31 248.144 203.745Z" fill="black" stroke="#263238" stroke-width="0.5"/>
<path opacity="0.2" d="M294.58 200.142L294.34 199.582L294.11 199.68L294.34 199.582L294.34 199.582C294.113 199.051 293.594 198.715 293.021 198.715H284.803C285.529 198.462 286.439 198.144 287.284 197.844C287.476 197.777 287.835 197.719 288.346 197.675C288.849 197.632 289.476 197.605 290.188 197.59C291.612 197.561 293.363 197.581 295.118 197.62C297.001 197.663 298.893 197.729 300.379 197.78C301.653 197.825 302.628 197.859 303.042 197.859C303.603 197.859 304.027 197.989 304.342 198.158C304.156 198.185 303.933 198.218 303.679 198.258C302.895 198.381 301.815 198.569 300.635 198.828C298.647 199.265 296.338 199.911 294.678 200.807C294.703 200.587 294.672 200.358 294.58 200.142C294.58 200.142 294.58 200.142 294.58 200.142Z" fill="black" stroke="#263238" stroke-width="0.5"/>
<path d="M266.86 240.347L276.453 239.522L276.485 239.519L276.515 239.508L276.431 239.273L276.515 239.508L276.515 239.508L276.516 239.508L276.519 239.507L276.53 239.503L276.577 239.486C276.617 239.472 276.677 239.451 276.754 239.424C276.908 239.371 277.129 239.294 277.399 239.202C277.938 239.019 278.671 238.774 279.445 238.529C280.22 238.283 281.034 238.038 281.738 237.855C282.451 237.668 283.021 237.552 283.322 237.55L266.86 240.347ZM266.86 240.347V242.489L274.654 243.036L274.71 243.039L274.759 243.067L274.759 243.067L274.759 243.067L274.76 243.067L274.762 243.069L274.77 243.073L274.806 243.093C274.838 243.11 274.885 243.135 274.944 243.165C275.063 243.225 275.229 243.304 275.422 243.385C275.815 243.549 276.287 243.701 276.672 243.708C277.099 243.716 282.55 243.548 287.91 243.378C290.587 243.293 293.236 243.207 295.216 243.142L297.605 243.065L298.272 243.043L298.388 243.039C298.393 243.032 298.398 243.025 298.404 243.017C298.459 242.942 298.538 242.833 298.632 242.697C298.819 242.426 299.064 242.052 299.295 241.64C299.527 241.227 299.741 240.782 299.871 240.369C300.004 239.947 300.037 239.597 299.956 239.35C299.767 238.771 299.229 238.166 298.705 237.688C298.448 237.453 298.203 237.258 298.023 237.121C297.933 237.052 297.859 236.999 297.808 236.962C297.804 236.96 297.8 236.957 297.797 236.955M266.86 240.347L297.797 236.955M297.797 236.955L297.733 236.958L297.311 236.976C296.948 236.992 296.427 237.015 295.797 237.043C294.539 237.098 292.846 237.172 291.112 237.246C287.647 237.394 284.003 237.544 283.322 237.55L297.797 236.955Z" fill="#2E353A" stroke="#263238" stroke-width="0.5"/>
<path opacity="0.2" d="M266.86 240.347L276.453 239.522L276.485 239.519L276.515 239.508L276.431 239.273L276.515 239.508L276.515 239.508L276.516 239.508L276.519 239.507L276.53 239.503L276.577 239.486C276.617 239.472 276.677 239.451 276.754 239.424C276.908 239.371 277.129 239.294 277.399 239.202C277.938 239.019 278.671 238.774 279.445 238.529C280.22 238.283 281.034 238.038 281.738 237.855C282.451 237.668 283.021 237.552 283.322 237.55L266.86 240.347ZM266.86 240.347V242.489L274.654 243.036L274.71 243.039L274.759 243.067L274.759 243.067L274.759 243.067L274.76 243.067L274.762 243.069L274.77 243.073L274.806 243.093C274.838 243.11 274.885 243.135 274.944 243.165C275.063 243.225 275.229 243.304 275.422 243.385C275.815 243.549 276.287 243.701 276.672 243.708C277.099 243.716 282.55 243.548 287.91 243.378C290.587 243.293 293.236 243.207 295.216 243.142L297.605 243.065L298.272 243.043L298.388 243.039C298.393 243.032 298.398 243.025 298.404 243.017C298.459 242.942 298.538 242.833 298.632 242.697C298.819 242.426 299.064 242.052 299.295 241.64C299.527 241.227 299.741 240.782 299.871 240.369C300.004 239.947 300.037 239.597 299.956 239.35C299.767 238.771 299.229 238.166 298.705 237.688C298.448 237.453 298.203 237.258 298.023 237.121C297.933 237.052 297.859 236.999 297.808 236.962C297.804 236.96 297.8 236.957 297.797 236.955M266.86 240.347L297.797 236.955M297.797 236.955L297.733 236.958L297.311 236.976C296.948 236.992 296.427 237.015 295.797 237.043C294.539 237.098 292.846 237.172 291.112 237.246C287.647 237.394 284.003 237.544 283.322 237.55L297.797 236.955Z" fill="white" stroke="#263238" stroke-width="0.5"/>
<path d="M245.225 187.725H237.559V190.403H245.225V187.725Z" fill="white" stroke="#263238" stroke-width="0.5" stroke-linecap="round" stroke-linejoin="round"/>
<path d="M163.427 174.377H158.357V249.015H163.427V174.377Z" fill="#A7A7A7" stroke="#263238" stroke-width="0.5" stroke-linecap="round" stroke-linejoin="round"/>
<path d="M178.16 174.377H162.932V249.015H178.16V174.377Z" fill="#263238" stroke="#263238" stroke-width="0.5" stroke-linecap="round" stroke-linejoin="round"/>
<path d="M161.195 118.547H145.179V176.687H161.195V118.547Z" fill="#A7A7A7" stroke="#263238" stroke-width="0.5" stroke-linecap="round" stroke-linejoin="round"/>
<path d="M181.316 118.547H161.174V176.687H181.316V118.547Z" fill="#263238" stroke="#263238" stroke-width="0.5" stroke-linecap="round" stroke-linejoin="round"/>
<path d="M157.443 123.031H149.768C148.647 123.031 147.738 123.941 147.738 125.064V150.703C147.738 151.826 148.647 152.736 149.768 152.736H157.443C158.564 152.736 159.473 151.826 159.473 150.703V125.064C159.473 123.941 158.564 123.031 157.443 123.031Z" fill="#8C8C8C" stroke="#263238" stroke-width="0.5" stroke-linecap="round" stroke-linejoin="round"/>
<path d="M156.979 124.32H154.817C154.31 124.32 153.898 124.732 153.898 125.241V130.762C153.898 131.27 154.31 131.682 154.817 131.682H156.979C157.486 131.682 157.897 131.27 157.897 130.762V125.241C157.897 124.732 157.486 124.32 156.979 124.32Z" fill="white" stroke="#263238" stroke-width="0.5" stroke-linecap="round" stroke-linejoin="round"/>
<path d="M155.924 124.943H155.015V131.021H155.924V124.943Z" fill="#263238" stroke="#263238" stroke-width="0.5" stroke-linecap="round" stroke-linejoin="round"/>
<path d="M157.898 130.792V125.19C157.898 124.959 157.806 124.738 157.643 124.575C157.481 124.412 157.26 124.32 157.029 124.32V131.682C157.145 131.682 157.26 131.659 157.366 131.614C157.473 131.569 157.57 131.503 157.651 131.42C157.732 131.337 157.795 131.239 157.838 131.131C157.88 131.023 157.9 130.908 157.898 130.792Z" fill="#263238" stroke="#263238" stroke-width="0.5" stroke-linecap="round" stroke-linejoin="round"/>
<path d="M150.737 124.311H149.404C148.852 124.311 148.404 124.759 148.404 125.312V131.531C148.404 132.084 148.852 132.532 149.404 132.532H150.737C151.289 132.532 151.737 132.084 151.737 131.531V125.312C151.737 124.759 151.289 124.311 150.737 124.311Z" stroke="#263238" stroke-width="0.5" stroke-linecap="round" stroke-linejoin="round"/>
<path d="M158.17 133.898H148.697V146.746H158.17V133.898Z" stroke="#263238" stroke-width="0.5" stroke-linecap="round" stroke-linejoin="round"/>
<path d="M175.394 118.547H156.105V100.527L175.394 98.459V118.547Z" fill="#A7A7A7" stroke="#263238" stroke-width="0.5" stroke-linecap="round" stroke-linejoin="round"/>
<path d="M161.528 118.547H175.394V98.459L161.528 99.9455V118.547Z" fill="#263238" stroke="#263238" stroke-width="0.5" stroke-linecap="round" stroke-linejoin="round"/>
<path d="M166.653 88.2867C166.553 88.269 166.45 88.269 166.35 88.2867C166.35 88.2867 149.127 92.3315 139.589 98.3736C139.494 98.9058 139.587 99.4542 139.851 99.9258C140.28 100.527 145.017 101.736 145.017 101.736H161.72L183.073 88.2867H166.653Z" fill="#A7A7A7" stroke="#263238" stroke-width="0.5" stroke-linecap="round" stroke-linejoin="round"/>
<path d="M144.824 96.5686H158.23C158.23 96.5686 165.749 91.9322 177.513 89.0957H166.309C166.309 89.0957 149.783 93.8838 144.824 96.5686Z" fill="#263238" stroke="#263238" stroke-width="0.5" stroke-linecap="round" stroke-linejoin="round"/>
<path d="M139.831 99.9507C140.261 100.552 144.997 101.761 144.997 101.761H161.7L156.277 98.3984H139.549C139.461 98.933 139.561 99.4816 139.831 99.9507Z" fill="#A7A7A7" stroke="#263238" stroke-width="0.5" stroke-linecap="round" stroke-linejoin="round"/>
<path d="M183.053 88.2859C183.053 88.2859 165.835 92.3308 156.292 98.3728C156.198 98.9044 156.289 99.4524 156.55 99.925C156.979 100.527 161.715 101.735 161.715 101.735C161.715 101.735 172.723 100.456 179.181 96.1329C185.639 91.81 184.689 88.028 183.053 88.2859Z" fill="#263238" stroke="#263238" stroke-width="0.5" stroke-linecap="round" stroke-linejoin="round"/>
<path d="M171.096 148.358C176.194 148.358 180.326 143.418 180.326 137.325C180.326 131.232 176.194 126.293 171.096 126.293C165.999 126.293 161.866 131.232 161.866 137.325C161.866 143.418 165.999 148.358 171.096 148.358Z" fill="#F6F6F6" stroke="#263238" stroke-width="0.5" stroke-linecap="round" stroke-linejoin="round"/>
<path d="M164.134 140.506H178.105" stroke="#263238" stroke-width="0.5" stroke-miterlimit="10"/>
<path d="M164.729 142.725H177.166" stroke="#263238" stroke-width="0.5" stroke-miterlimit="10"/>
<path d="M166.179 144.258H175.293" stroke="#263238" stroke-width="0.5" stroke-miterlimit="10"/>
<path d="M185.926 248.402H151.349V261.675H185.926V248.402Z" fill="#A7A7A7" stroke="#263238" stroke-width="0.5" stroke-linecap="round" stroke-linejoin="round"/>
<path d="M185.922 248.402H165.108V261.675H185.922V248.402Z" fill="#263238" stroke="#263238" stroke-width="0.5" stroke-linecap="round" stroke-linejoin="round"/>
<path d="M103.566 100.596C103.566 100.596 101.102 102.326 100.935 105.288C100.769 108.251 102.495 113.687 102.495 114.182C102.495 114.678 101.43 119.45 101.43 119.45L111.049 125.133L113.518 119.865C113.518 119.865 117.214 119.698 117.557 119.122C117.901 118.545 118.956 113.444 118.956 113.444L120.602 113.029L118.628 108.984C118.628 108.984 118.875 107.341 118.875 107.093C118.875 106.846 117.805 103.468 117.557 102.811C117.31 102.154 115.997 99.2717 110.736 98.943C105.474 98.6144 103.566 100.596 103.566 100.596Z" fill="#F9CB98" stroke="#263238" stroke-width="0.5" stroke-linecap="round" stroke-linejoin="round"/>
<path d="M110.721 98.9383C105.459 98.6046 103.566 100.582 103.566 100.582C103.566 100.582 101.102 102.311 100.935 105.274C100.789 107.872 102.097 112.352 102.425 113.773C103.142 114.243 104.142 114.784 104.636 114.663C105.459 114.415 104.47 112.524 105.212 110.795C105.954 109.066 108.418 108.732 109.075 108.818C109.731 108.904 110.226 110.299 110.226 110.299L111.296 110.218L111.216 107.994C111.216 107.994 112.857 106.76 113.271 106.017C113.685 105.274 112.119 102.639 112.119 102.639L117.29 102.26C116.694 101.209 115.038 99.2215 110.721 98.9383Z" fill="#263238" stroke="#263238" stroke-width="0.5" stroke-linecap="round" stroke-linejoin="round"/>
<path d="M108.832 110.279C108.832 110.279 108.095 107.973 106.625 108.62C105.156 109.268 105.338 111.75 105.706 112.665C106.075 113.58 107.726 114.142 108.282 113.677" fill="#F9CB98"/>
<path d="M108.832 110.279C108.832 110.279 108.095 107.973 106.625 108.62C105.156 109.268 105.338 111.75 105.706 112.665C106.075 113.58 107.726 114.142 108.282 113.677" stroke="#263238" stroke-width="0.5" stroke-linecap="round" stroke-linejoin="round"/>
<path d="M117.876 108.504C117.545 108.39 117.192 108.36 116.847 108.417C116.502 108.474 116.177 108.617 115.901 108.833" stroke="#263238" stroke-width="0.5" stroke-linecap="round" stroke-linejoin="round"/>
<path d="M117.461 109.737C117.461 110.147 117.259 110.476 117.012 110.476C116.765 110.476 116.558 110.147 116.558 109.737C116.558 109.328 116.76 108.994 117.012 108.994C117.265 108.994 117.461 109.328 117.461 109.737Z" fill="#263238"/>
<path d="M117.79 115.664C117.79 115.664 116.724 115.75 116.229 115.088" stroke="#263238" stroke-width="0.5" stroke-linecap="round" stroke-linejoin="round"/>
<path d="M117.876 110.477L117.053 111.053" stroke="#263238" stroke-width="0.5" stroke-linecap="round" stroke-linejoin="round"/>
<path d="M113.291 119.849C112.565 119.59 111.878 119.214 111.253 118.733C110.628 118.133 110.291 117.791 110.291 117.791L112.434 121.515L113.291 119.849Z" fill="#B18F69"/>
<path d="M117.906 181.975C117.906 181.975 118.754 198.988 118.118 205.576C117.482 212.164 116.825 216.528 116.32 217.59C115.815 218.651 112.18 223.546 112.18 223.546C112.18 223.546 109.524 236.939 109.842 238.85C110.088 240.609 109.867 242.402 109.201 244.048C108.67 245.322 107.716 252.193 107.716 252.512C107.716 252.83 114.507 257.062 115.891 257.507C117.274 257.952 118.416 257.72 118.966 259.1C119.516 260.48 119.178 261.547 117.906 261.547C116.633 261.547 104.318 260.698 102.51 260.379C100.703 260.061 99.1172 259.631 99.1172 259.631C99.1172 259.631 101.137 229.906 101.137 227.778C101.137 225.649 104.323 193.755 104.323 191.526C104.323 189.296 103.818 182.384 103.818 182.384L117.906 181.975Z" fill="#002648" stroke="#263238" stroke-width="0.5" stroke-linecap="round" stroke-linejoin="round"/>
<path d="M95.8257 181.762C95.8257 181.762 95.5076 187.187 97.0982 190.266C98.0014 191.997 98.8171 193.772 99.542 195.585C99.542 195.585 98.6887 209.742 97.0982 218.337C95.5076 226.933 94.8664 239.922 94.5483 244.174C94.2302 248.426 94.4422 255.899 94.4422 255.899C94.4422 255.899 93.5939 260.682 93.9373 261.001C94.2806 261.319 102.324 261.395 105.934 261.607C109.545 261.82 116.235 261.607 116.871 260.227C117.507 258.847 117.295 257.78 116.366 257.355C115.437 256.93 109.358 254.377 108.828 253.952C108.269 253.368 107.772 252.727 107.343 252.041C107.343 252.041 106.914 247.895 106.914 246.935V240.66C106.914 239.492 106.384 238 106.596 236.615C106.808 235.23 108.722 223.752 109.358 222.261C109.994 220.769 111.267 215.036 111.802 212.589C112.337 210.141 115.412 199.407 116.154 195.049C116.896 190.691 118.174 182.717 118.174 182.717L95.8257 181.762Z" fill="#00386C" stroke="#263238" stroke-width="0.5" stroke-linecap="round" stroke-linejoin="round"/>
<path d="M98.7945 241.615C98.1381 248.921 98.1583 249.907 98.1583 249.907" stroke="#002648" stroke-width="0.5" stroke-linecap="round" stroke-linejoin="round"/>
<path d="M107.14 193.244C107.14 198.72 106.827 206.471 105.272 211.952C102.616 221.305 99.5412 231.62 98.7939 239.593" stroke="#002648" stroke-width="0.5" stroke-linecap="round" stroke-linejoin="round"/>
<path d="M106.969 186.656C106.969 186.656 107.09 188.603 107.125 191.54" stroke="#3D3D3D" stroke-width="0.5" stroke-linecap="round" stroke-linejoin="round"/>
<path d="M116.826 260.227C117.462 258.841 117.25 257.78 116.321 257.355C115.392 256.93 109.312 254.377 108.782 253.952C108.223 253.368 107.726 252.727 107.298 252.041C107.298 252.041 103.687 253.952 100.289 254.483C98.3046 254.785 96.3499 255.259 94.4471 255.899C94.4471 255.899 93.5988 260.682 93.9422 261C94.2855 261.319 100.506 261.744 104.137 261.956C107.767 262.168 116.21 261.602 116.826 260.227Z" fill="#4B4B4B" stroke="#263238" stroke-width="0.5" stroke-linecap="round" stroke-linejoin="round"/>
<path d="M116.825 260.227C117.155 259.627 117.254 258.927 117.103 258.26C115.033 258.74 110.484 259.721 107.378 259.777C103.844 259.863 96.2294 259.438 93.9925 258.649C93.8461 259.772 93.7501 260.833 93.8915 260.975C94.2096 261.298 100.456 261.718 104.086 261.93C107.717 262.143 116.209 261.602 116.825 260.227Z" fill="white" stroke="#263238" stroke-width="0.5" stroke-linecap="round" stroke-linejoin="round"/>
<path d="M99.8498 121.838C99.8498 121.838 94.6439 130.241 94.1592 133.528C93.6744 136.814 93.7754 164.44 93.7754 164.44L93.2705 183.856C93.2705 183.856 123.273 184.821 125.586 183.76C127.899 182.698 130.019 180.959 129.625 178.056C129.232 175.154 126.828 154.874 122.294 143.766C117.76 132.658 112.938 129.179 112.938 129.179C112.938 129.179 105.348 124.058 99.8498 121.838Z" fill="#B9E5FA" stroke="#263238" stroke-width="0.5" stroke-linecap="round" stroke-linejoin="round"/>
<path d="M124.5 164.162L109.857 165.886C109.857 165.886 110.287 169.425 110.978 169.683C111.67 169.941 118.305 171.407 118.648 171.322C118.992 171.236 125.288 168.561 125.46 167.782C125.579 166.953 125.637 166.117 125.631 165.28" stroke="#263238" stroke-width="0.5" stroke-linecap="round" stroke-linejoin="round"/>
<path d="M100.527 118.713C100.527 118.713 98.6332 121.923 99.0422 122.09C99.4512 122.257 108.091 126.135 109.075 126.782C110.06 127.43 115.816 131.97 115.816 131.97C115.816 131.97 111.953 124.891 111.049 124.062C110.146 123.233 100.527 118.713 100.527 118.713Z" fill="#B9E5FA" stroke="#263238" stroke-width="0.5" stroke-linecap="round" stroke-linejoin="round"/>
<path d="M152.438 152.183L156.129 151.708C155.024 151.279 153.886 150.941 152.726 150.697C151.595 150.555 148.475 150.98 148.475 150.98L150.388 152.183H152.438Z" fill="white" stroke="#263238" stroke-width="0.5" stroke-linecap="round" stroke-linejoin="round"/>
<path d="M152.438 152.184C152.438 151.891 151.085 152.134 151.085 152.134L151.04 152.199C150.247 151.502 149.055 150.682 149.055 150.682C149.055 150.682 150.408 150.733 150.504 150.394C150.6 150.056 149.535 150.101 149.394 150.005C149.252 149.909 146.829 148.938 146.687 148.842C146.546 148.746 144.607 148.336 144.077 148.458C143.546 148.579 138.613 149.813 138.613 149.813L140.84 155.375C142.288 155.518 143.748 155.484 145.187 155.273C146.669 155.15 148.057 154.498 149.101 153.438C149.455 153.413 149.811 153.413 150.166 153.438H150.217C150.525 153.438 151.484 153.509 151.731 153.099C152.534 152.715 152.438 152.472 152.438 152.184Z" fill="#F9CB98" stroke="#263238" stroke-width="0.5" stroke-linecap="round" stroke-linejoin="round"/>
<path d="M149.055 150.682C149.055 150.682 147.268 149.716 146.828 149.519C146.323 149.34 145.807 149.195 145.283 149.084" stroke="#263238" stroke-width="0.5" stroke-linecap="round" stroke-linejoin="round"/>
<path d="M147.702 153.008L149.439 153.347" stroke="#263238" stroke-width="0.5" stroke-linecap="round" stroke-linejoin="round"/>
<path d="M100.431 143.574C100.431 143.574 112.297 157.964 114.513 159.415C115.67 160.23 116.987 160.79 118.376 161.058L137.089 159.035C137.089 159.035 138.826 160.001 139.406 159.708C139.987 159.415 141.527 158.07 141.143 154.783C140.759 151.497 139.209 149.085 138.149 149.181C137.068 149.347 136.004 149.606 134.968 149.955C134.675 150.051 130.626 150.339 130.626 150.339C130.626 150.339 125.511 150.243 124.642 150.339C123.774 150.435 121.461 149.662 120.688 148.792C119.778 147.89 118.811 147.045 117.795 146.264C117.795 146.264 112.973 130.711 110.943 129.356C108.913 128.001 103.809 125.397 101.395 129.746" fill="#B9E5FA"/>
<path d="M100.431 143.574C100.431 143.574 112.297 157.964 114.513 159.415C115.67 160.23 116.987 160.79 118.376 161.058L137.089 159.035C137.089 159.035 138.826 160.001 139.406 159.708C139.987 159.415 141.527 158.07 141.143 154.783C140.759 151.497 139.209 149.085 138.149 149.181C137.068 149.347 136.004 149.606 134.968 149.955C134.675 150.051 130.626 150.339 130.626 150.339C130.626 150.339 125.511 150.243 124.642 150.339C123.774 150.435 121.461 149.662 120.688 148.792C119.778 147.89 118.811 147.045 117.795 146.264C117.795 146.264 112.973 130.711 110.943 129.356C108.913 128.001 103.809 125.397 101.395 129.746" stroke="#263238" stroke-width="0.5" stroke-linecap="round" stroke-linejoin="round"/>
<path d="M135.645 150.885C135.645 150.885 137.796 151.744 136.791 157.771" stroke="#263238" stroke-width="0.5" stroke-linecap="round" stroke-linejoin="round"/>
<g opacity="0.7">
<path d="M168.567 136.578L167.908 135.149L171.671 129.816L173.027 130.345L168.567 136.578Z" fill="black"/>
<path d="M172.189 134.521L171.643 135.29C171.513 135.126 171.388 134.967 171.262 134.807C170.813 134.234 170.363 133.661 169.912 133.087C170.095 132.84 170.273 132.587 170.45 132.337C170.484 132.288 170.519 132.239 170.553 132.19L171.402 133.842L171.591 134.209L171.829 133.871L172.496 132.924C172.639 133.358 172.782 133.788 172.923 134.217C173.057 134.62 173.189 135.022 173.322 135.422L172.588 134.509L172.381 134.251L172.189 134.521Z" fill="black" stroke="black" stroke-width="0.5"/>
<path d="M175.098 133.374C175.047 132.467 174.679 131.609 174.061 130.949L174.586 130.222C175.382 131.015 175.875 132.066 175.97 133.192C176.073 134.409 175.704 135.62 174.938 136.573C174.173 137.525 173.07 138.146 171.858 138.307C170.647 138.468 169.42 138.157 168.432 137.437C167.445 136.718 166.772 135.646 166.553 134.443C166.335 133.241 166.588 132.001 167.259 130.98C167.931 129.959 168.97 129.236 170.16 128.96C171.262 128.705 172.415 128.852 173.415 129.369L172.895 130.098C172.08 129.712 171.152 129.621 170.274 129.847C169.323 130.092 168.501 130.69 167.975 131.518C167.448 132.347 167.257 133.345 167.439 134.309C167.622 135.274 168.164 136.133 168.957 136.713C169.749 137.292 170.732 137.548 171.707 137.429C172.681 137.31 173.574 136.825 174.204 136.072C174.834 135.319 175.153 134.354 175.098 133.374Z" fill="black" stroke="black" stroke-width="0.5"/>
</g>
</svg>
