<svg width="16" height="20" viewBox="0 0 16 20" fill="none" xmlns="http://www.w3.org/2000/svg">
<g id="Group 7719">
<path id="Vector" d="M11.5 7.22266H13.25C13.7141 7.22266 14.1592 7.40342 14.4874 7.72517C14.8156 8.04692 15 8.48331 15 8.93834V17.1736C15 17.6287 14.8156 18.0651 14.4874 18.3868C14.1592 18.7086 13.7141 18.8893 13.25 18.8893H2.75C2.28587 18.8893 1.84075 18.7086 1.51256 18.3868C1.18437 18.0651 1 17.6287 1 17.1736V8.93834C1 8.48331 1.18437 8.04692 1.51256 7.72517C1.84075 7.40342 2.28587 7.22266 2.75 7.22266H4.5" stroke="black" stroke-width="0.8" stroke-linecap="round" stroke-linejoin="round"/>
<path id="Vector_2" d="M11.1109 4.88889L7.99978 1L4.88867 4.88889" stroke="black" stroke-width="0.8" stroke-linecap="round" stroke-linejoin="round"/>
<path id="Vector_3" d="M8 12.6667V1" stroke="black" stroke-width="0.8" stroke-linecap="round" stroke-linejoin="round"/>
</g>
</svg>
